<svg xmlns="http://www.w3.org/2000/svg" xmlns:xlink="http://www.w3.org/1999/xlink" width="85.162" height="73.791" viewBox="0 0 85.162 73.791">
  <defs>
    <clipPath id="clip-path">
      <rect id="Rectangle_3155" data-name="Rectangle 3155" width="85.162" height="73.791" fill="#fff"/>
    </clipPath>
  </defs>
  <g id="Group_4711" data-name="Group 4711" transform="translate(0)">
    <g id="Group_4710" data-name="Group 4710" transform="translate(0)" clip-path="url(#clip-path)">
      <path id="Path_2784" data-name="Path 2784" d="M12.175,29.8a31.631,31.631,0,0,1,4.271-9.978c-.944-.931-1.888-1.853-2.822-2.785-1.132-1.13-1.137-1.717-.033-2.823q3.2-3.2,6.4-6.395c.99-.987,1.632-.981,2.634.01.84.832,1.654,1.693,2.528,2.486a.964.964,0,0,0,.866.1c1.537-.749,3.008-1.642,4.574-2.317,1.539-.663,3.165-1.124,4.9-1.725,0-1.368,0-2.866,0-4.363C35.492.428,35.911,0,37.472,0Q42.66,0,47.848,0c1.338,0,1.825.483,1.831,1.8.007,1.534,0,3.068,0,4.559,1.725.6,3.42,1.108,5.039,1.793a37.6,37.6,0,0,1,4.244,2.186.828.828,0,0,0,1.256-.167c.78-.847,1.613-1.647,2.437-2.454a1.478,1.478,0,0,1,2.445.016c1.929,1.915,3.844,3.844,5.862,5.863l1.364-1.754c-1.058-1.046-2.246-2.231-3.446-3.4-.533-.521-.968-1.065-.639-1.866s.986-.91,1.748-.908c4.434.013,8.868,0,13.3.008,1.391,0,1.861.471,1.863,1.861,0,4.434-.005,8.868.007,13.3,0,.762-.122,1.424-.909,1.748s-1.345-.107-1.866-.639c-1.175-1.2-2.363-2.382-3.619-3.646-1.145,1.155-2.22,2.244-3.3,3.328-1.105,1.11-2.2,2.228-3.329,3.318a.914.914,0,0,0-.29,1.142c.446,1.183.794,2.4,1.214,3.708,1.5,0,3.064-.005,4.626,0,1.283.005,1.786.493,1.788,1.756q.01,5.321,0,10.642c0,1.307-.5,1.785-1.846,1.79-1.532,0-3.065,0-4.635,0a31.641,31.641,0,0,1-4.278,9.985c1.033,1.014,2.03,1.976,3.007,2.958a1.494,1.494,0,0,1-.012,2.508q-3.284,3.3-6.584,6.584a1.494,1.494,0,0,1-2.507.006c-.981-.977-1.942-1.975-2.944-3a32.061,32.061,0,0,1-10,4.274c0,1.543,0,3.046,0,4.549,0,1.464-.454,1.93-1.883,1.931q-5.232,0-10.464,0c-1.374,0-1.837-.479-1.841-1.883,0-1.505,0-3.01,0-4.594a31.653,31.653,0,0,1-10-4.3c-.956.985-1.888,1.962-2.84,2.921-1.032,1.039-1.662,1.036-2.7,0q-2.544-2.535-5.081-5.078c-.2-.2-.423-.394-.7-.653-1.322,1.329-2.608,2.626-3.9,3.919-1.127,1.131-2.249,2.267-3.389,3.383a1.452,1.452,0,0,1-2.38,0q-1.929-1.9-3.827-3.823a1.494,1.494,0,0,1,.01-2.507q6.108-6.12,12.239-12.217a1.144,1.144,0,0,0,.322-1.443c-.429-1.124-.741-2.294-1.129-3.529-1.5,0-3.032,0-4.564,0-1.39,0-1.86-.472-1.861-1.863q-.005-5.232,0-10.464c0-1.393.468-1.858,1.86-1.862,1.532,0,3.064,0,4.622,0m57.279-2.252c-.7.743-1.174,1.312-1.718,1.8a1.214,1.214,0,0,0-.371,1.393A25.516,25.516,0,1,1,17.413,32.9c1.705-10.18,7.67-17.145,17.483-20.282,9.609-3.072,18.244-.791,25.616,6.11.9.841,1.674,1.813,2.378,2.582l5.812-5.73L63.689,10.59c-.835.872-1.717,1.82-2.628,2.738a1.5,1.5,0,0,1-2.34.219A28.759,28.759,0,0,0,48.377,9.1c-1.266-.274-1.531-.639-1.534-1.96,0-1.409,0-2.818,0-4.242H38.328c0,1.415,0,2.771,0,4.126,0,1.472-.259,1.826-1.679,2.128a28.226,28.226,0,0,0-10.107,4.33c-1.124.765-1.573.709-2.543-.26-.891-.889-1.773-1.787-2.583-2.6L16.28,15.768c.873.843,1.814,1.731,2.73,2.642a1.5,1.5,0,0,1,.233,2.339,28.84,28.84,0,0,0-4.469,10.429c-.249,1.155-.652,1.454-1.845,1.458-1.44.005-2.879,0-4.344,0v8.514h4.12c1.489,0,1.824.24,2.129,1.669a28.32,28.32,0,0,0,4.334,10.107c.765,1.126.717,1.587-.249,2.545-.894.887-1.807,1.755-2.56,2.485L21.527,63.1c.811-.831,1.71-1.77,2.63-2.687a1.443,1.443,0,0,1,2.2-.233,28.776,28.776,0,0,0,10.678,4.55,1.475,1.475,0,0,1,1.3,1.63c-.008.886,0,1.773,0,2.66V70.9h8.514c0-1.4,0-2.759,0-4.112,0-1.516.246-1.848,1.741-2.164a28.026,28.026,0,0,0,10.023-4.3c1.133-.769,1.594-.723,2.547.23.891.892,1.769,1.8,2.525,2.566l5.152-5.143c-.81-.784-1.709-1.638-2.589-2.511-.958-.95-1-1.41-.232-2.545a28.107,28.107,0,0,0,4.3-10.024c.317-1.493.649-1.738,2.166-1.739H76.6V32.638c-1.516,0-2.986.007-4.456,0-1.073-.007-1.475-.345-1.733-1.381-.283-1.138-.583-2.273-.952-3.706m-4.727,4.767c-.676.7-1.227,1.313-1.831,1.872a1.556,1.556,0,0,0-.512,1.312,26.322,26.322,0,0,1-.179,4.418,19.866,19.866,0,1,1-3.729-14.931c.15.2.323.377.361.421l2.014-1.93a22.807,22.807,0,1,0,3.876,8.837M73.193,8.564c.025.1.021.166.052.2.642.654,1.288,1.3,1.932,1.954,1.027,1.039,1.029,1.661-.008,2.7Q62.412,26.177,49.65,38.936c-1.081,1.081-1.692,1.083-2.761.015q-4.642-4.638-9.281-9.279c-.222-.222-.454-.434-.718-.687-3.617,3.619-7.168,7.17-10.708,10.732a.8.8,0,0,0-.249.6c.254,1.032.564,2.05.89,3.195.367-.349.583-.546.79-.753q3.889-3.885,7.776-7.774c1.257-1.257,1.777-1.264,3.012-.03q4.578,4.576,9.156,9.153c.223.223.459.431.84.787a10.482,10.482,0,0,1,.754-.961q14.1-14.116,28.211-28.221c1.113-1.113,1.7-1.112,2.823.01.656.658,1.3,1.331,2.071,2.124V8.564ZM48.263,36.312c2.693-2.7,5.272-5.336,7.927-7.9.661-.637.588-1.033.084-1.661C51.8,21.183,46.012,18.8,39.026,20.3c-6.944,1.489-11.259,6-13.049,12.876a26.887,26.887,0,0,0-.436,2.869,2.133,2.133,0,0,0,.837-.558q4.639-4.636,9.278-9.271a1.493,1.493,0,0,1,2.506-.006q2.611,2.59,5.2,5.2c1.605,1.607,3.209,3.214,4.9,4.907M36.945,37.5c-.277.259-.473.431-.658.616-2.466,2.463-4.914,4.944-7.407,7.379a.858.858,0,0,0-.095,1.382C33.245,52.556,39.06,55,46.125,53.494c6.983-1.488,11.306-6.027,13.081-12.944a26.809,26.809,0,0,0,.423-2.8,2.352,2.352,0,0,0-.884.6q-4.419,4.416-8.835,8.834c-1.429,1.429-1.86,1.435-3.261.031-3.213-3.218-6.423-6.438-9.7-9.727M14.86,51.281,3.708,62.436l2.13,2.118,9.071-9.088C16.375,54,16.376,54,15.4,52.23c-.184-.332-.373-.661-.537-.95" transform="translate(0 0)" fill="#fff"/>
    </g>
  </g>
</svg>
