<svg id="Group_4745" data-name="Group 4745" xmlns="http://www.w3.org/2000/svg" xmlns:xlink="http://www.w3.org/1999/xlink" width="82.405" height="58.638" viewBox="0 0 82.405 58.638">
  <defs>
    <clipPath id="clip-path">
      <rect id="Rectangle_3172" data-name="Rectangle 3172" width="82.405" height="58.638" fill="#1d36e4"/>
    </clipPath>
  </defs>
  <g id="Group_4744" data-name="Group 4744" clip-path="url(#clip-path)">
    <path id="Path_2885" data-name="Path 2885" d="M82.4,52.805a2.274,2.274,0,0,1-2.443,1.42c-1.474-.049-2.951-.039-4.425.011a1.263,1.263,0,0,0-.874.482,8.436,8.436,0,0,1-14.257-.012,1,1,0,0,0-.977-.5c-1.743.016-3.487.007-5.23.006a6.288,6.288,0,0,1-.643-.01,1.241,1.241,0,0,1-1.2-1.261,1.181,1.181,0,0,1,1.231-1.129c1.555-.027,3.111-.012,4.667-.015h.877V48.644H44.2V51.8c1.087,0,2.2-.01,3.32.006a2.432,2.432,0,0,1,.938.142,1.082,1.082,0,0,1,.618,1.339,1.171,1.171,0,0,1-1.255.92c-1.287.014-2.576.031-3.862-.006a1.117,1.117,0,0,0-1.1.59,8.393,8.393,0,0,1-14.088.019A1.189,1.189,0,0,0,27.61,54.2c-1.528.031-3.058.026-4.587,0a1.061,1.061,0,0,0-1.043.533,8.4,8.4,0,0,1-14.186,0,1,1,0,0,0-.959-.533c-1.555.025-3.111.019-4.667.006A1.924,1.924,0,0,1,0,52.022Q0,50.211,0,48.4c0-1.49.56-2.1,2.024-2.236.1-.01.2-.034.385-.066,0-2,0-3.972,0-5.95a4.9,4.9,0,0,1,.065-1.039,2.484,2.484,0,0,1,2.3-1.921c.265-.014.532,0,.917,0-.111-.349-.187-.619-.282-.881-1.245-3.422-2.48-6.848-3.748-10.261a3.636,3.636,0,0,1,.01-2.653q3.422-9.311,6.8-18.638c.775-2.127,1.92-2.653,4.054-1.862.3.111.6.215,1,.355.218-.573.434-1.137.646-1.7A1.919,1.919,0,0,1,16.554.037Q25.08,1.178,33.6,2.354c1.779.242,3.568.425,5.333.746a7.333,7.333,0,0,1,2.527.886c5.782,3.593,11.527,7.245,17.284,10.877.2.124.406.228.671.376.495-1.711,1.708-2.131,3.293-2.1,2.627.058,5.257.043,7.885,0A2.8,2.8,0,0,1,73.473,15c2.047,4.658,4.147,9.293,6.2,13.949A3.98,3.98,0,0,1,79.99,30.5c.023,4.882.014,9.764.014,14.646v1.025a2.168,2.168,0,0,1,2.4,1.326ZM43.81,8.289c-1.391-.877-2.7-1.711-4.021-2.526a1.8,1.8,0,0,0-.676-.231c-1.326-.188-2.659-.329-3.98-.545a.747.747,0,0,0-.99.588q-4.513,12.5-9.08,24.975c-.182.5-.146.761.329,1.027a15.03,15.03,0,0,1,2.17,1.376c1.974,1.608,4.414,1.171,6.628,1.729.129-.341.217-.563.3-.788q1.9-5.2,3.8-10.407c.335-.915.914-1.26,1.621-1s.963.907.649,1.791c-.4,1.135-.826,2.262-1.237,3.394-.873,2.406-1.743,4.813-2.624,7.246a2.111,2.111,0,0,0,.358.129c4.884.664,9.769,1.316,14.651,2,.565.079.736-.175.9-.628q2.12-5.893,4.269-11.775c.793-2.182,1.59-4.362,2.4-6.584L45.9,9.612c-1.065,2.929-2.087,5.745-3.114,8.559a3.826,3.826,0,0,1-.352.806,1.106,1.106,0,0,1-1.409.455,1.132,1.132,0,0,1-.755-1.349,4.071,4.071,0,0,1,.23-.684c1.095-3.017,2.19-6.033,3.308-9.11M22.774,29.808,31.961,4.564,16.406,2.456,9.472,21.512c4.39,2.771,8.694,5.489,13,8.2a1.554,1.554,0,0,0,.3.092M4.859,46.166a20.32,20.32,0,0,0,2.052-.022,1.249,1.249,0,0,0,.811-.465,8.467,8.467,0,0,1,14.326-.017,1.268,1.268,0,0,0,.88.481c1.554.048,3.111,0,4.665.032a1.192,1.192,0,0,0,1.168-.61,8.4,8.4,0,0,1,14.089-.019,1.211,1.211,0,0,0,1.158.631c4.854-.021,9.708-.012,14.562-.012h.789V39.646H4.859Zm57.011-2.4a.977.977,0,0,0,.262-.091,8.451,8.451,0,0,1,12.59,2.087.833.833,0,0,0,.541.381c.742.044,1.488.018,2.258.018V40.1c-1.381,0-2.693,0-4.006,0-1.573,0-2.223-.664-2.227-2.26,0-1.019,0-2.037,0-3.056,0-1.914.581-2.5,2.484-2.5,1.25,0,2.5,0,3.757,0V30.636h-.933c-2.922,0-5.843,0-8.765,0a2.526,2.526,0,0,1-2.785-2.789c-.008-2.171,0-4.343,0-6.514,0-2.1.924-3.016,3.048-3.02,1.356,0,2.712,0,4.194,0-.346-.782-.671-1.422-.91-2.092a.893.893,0,0,0-1.017-.656c-2.573.027-5.146.011-7.72.015-.255,0-.51.036-.768.055ZM8.74,23.927l-.3.109a5.585,5.585,0,0,0,.138,1.337c1.312,3.678,2.672,7.34,3.981,11.019a1,1,0,0,0,1.132.808c6.512-.03,13.024-.018,19.536-.018h.705a14.065,14.065,0,0,0-2.7-.481,10.728,10.728,0,0,1-5.205-1.838C20.58,31.312,15.046,27.887,9.544,24.415c-.265-.167-.536-.326-.8-.488M14.826,56.2a6.031,6.031,0,1,0-5.969-6.083A6.025,6.025,0,0,0,14.826,56.2m20.945,0a6.032,6.032,0,1,0-5.992-6.062A6.026,6.026,0,0,0,35.771,56.2m31.7,0a6.031,6.031,0,1,0-5.985-6.069A6.025,6.025,0,0,0,67.469,56.2M10.244,37.126c-.113-.351-.194-.631-.293-.905-1.21-3.32-2.4-6.646-3.647-9.954a4.062,4.062,0,0,1-.016-3.034c1.3-3.456,2.549-6.935,3.813-10.406.877-2.409,1.748-4.82,2.642-7.287l-1.716-.615c-.1.212-.178.351-.232.5q-3.421,9.395-6.821,18.8a1.834,1.834,0,0,0,.045,1.14c1.219,3.43,2.472,6.848,3.714,10.271.606,1.67.6,1.671,2.512,1.495M67.5,28.167h9.189a56.007,56.007,0,0,1-2.28-5.213c-.591-1.807-1.558-2.554-3.472-2.261a23.046,23.046,0,0,1-3.437.031Zm-8.126-2.962h-.135L54.91,37.121h4.467ZM27.423,48.643H23.277v3.09h4.145Zm-20.921,0H2.467v3.082H6.5Zm69.405,3.1H79.93V48.631H75.907Zm1.643-17.009H73.757v2.914h3.792Z" transform="translate(0 0)" fill="#1d36e4"/>
    <path id="Path_2886" data-name="Path 2886" d="M55.989,223.748a3.612,3.612,0,0,1-3.568-3.677,3.619,3.619,0,0,1,7.237.1,3.609,3.609,0,0,1-3.669,3.578m1.251-3.616a1.2,1.2,0,1,0-2.4.017,1.2,1.2,0,0,0,2.4-.017" transform="translate(-41.149 -169.961)" fill="#1d36e4"/>
    <path id="Path_2887" data-name="Path 2887" d="M153.333,223.751a3.613,3.613,0,0,1-3.605-3.643,3.619,3.619,0,0,1,7.239.028,3.611,3.611,0,0,1-3.633,3.615m-.019-4.815a1.226,1.226,0,0,0-1.166,1.278,1.2,1.2,0,0,0,2.4-.145,1.233,1.233,0,0,0-1.232-1.134" transform="translate(-117.535 -169.963)" fill="#1d36e4"/>
    <path id="Path_2888" data-name="Path 2888" d="M300.753,223.749a3.611,3.611,0,0,1-3.56-3.685,3.619,3.619,0,0,1,7.237.116,3.608,3.608,0,0,1-3.677,3.57m1.258-3.573a1.2,1.2,0,1,0-2.4-.069,1.2,1.2,0,0,0,2.4.069" transform="translate(-233.293 -169.962)" fill="#1d36e4"/>
  </g>
</svg>
