<svg id="Group_4747" data-name="Group 4747" xmlns="http://www.w3.org/2000/svg" xmlns:xlink="http://www.w3.org/1999/xlink" width="77.712" height="53.256" viewBox="0 0 77.712 53.256">
  <defs>
    <clipPath id="clip-path">
      <rect id="Rectangle_3173" data-name="Rectangle 3173" width="77.712" height="53.256" fill="#1d36e4"/>
    </clipPath>
  </defs>
  <g id="Group_4746" data-name="Group 4746" clip-path="url(#clip-path)">
    <path id="Path_2889" data-name="Path 2889" d="M77.711,43.031a2.009,2.009,0,0,1-2.064,1.079c-1.359-.06-2.722-.015-4.132-.015A7.57,7.57,0,0,1,69.4,50.967a7.322,7.322,0,0,1-5.676,2.248,7.722,7.722,0,0,1-7.154-9.083H33.3c.462,3.759-.825,6.665-4.257,8.282-3.554,1.675-6.682.779-9.29-2.17-2.747,3.074-6.017,3.906-9.675,1.981-3.175-1.671-4.346-4.5-3.866-8.13q-2.079,0-4.145,0C.5,44.093.026,43.617.025,42.06q0-3.382,0-6.763c0-1.294.552-1.838,1.853-1.843,1.327,0,2.654,0,4.093,0-5.692-4.981-7.442-10.974-4.7-17.9C3.7,9.409,8.543,6.387,15.143,6.042V3.1c-.135-.048-.3-.1-.458-.164A1.5,1.5,0,0,1,13.7,1.324a1.474,1.474,0,0,1,1.45-1.3c.833-.037,1.668-.014,2.5-.014q4.741,0,9.481,0a1.529,1.529,0,0,1,1.585.933,1.385,1.385,0,0,1-.292,1.614,5.07,5.07,0,0,1-1.068.624v2.91h.821c3.211,0,6.422.013,9.633,0a15.122,15.122,0,0,1,12.181,5.582c.09.106.191.2.408.432v-.89c0-2.153-.008-4.306,0-6.459a1.512,1.512,0,0,1,1.614-1.7c4.121-.011,8.242-.043,12.363.015a7.461,7.461,0,0,1,6.951,5.494,1.094,1.094,0,0,0,.85.875,7.472,7.472,0,0,1,5.37,5.738c.041.166.106.326.16.489ZM26.557,9.128v0c-3.894,0-7.789-.041-11.683.009a12.156,12.156,0,0,0,.417,24.307q11.076.024,22.152,0a19.412,19.412,0,0,0,2.192-.129A11.954,11.954,0,0,0,50.016,18.445,11.873,11.873,0,0,0,38.088,9.133c-3.843-.024-7.687,0-11.531,0M19.716,40.981a1.365,1.365,0,0,0,.2-.146,7.638,7.638,0,0,1,11.754-.09,1.012,1.012,0,0,0,.705.3q12.554.022,25.108,0a1.162,1.162,0,0,0,.766-.333,7.6,7.6,0,0,1,11.6-.006.926.926,0,0,0,.539.336c1.407.028,2.815.015,4.237.015v-4.5H3.1v4.5c1.271,0,2.5-.024,3.736.011a1.406,1.406,0,0,0,1.231-.535,7.133,7.133,0,0,1,5.49-2.494,7.454,7.454,0,0,1,6.16,2.944M74.646,28.892h-.913q-6.9,0-13.8,0c-1.44,0-1.946-.516-1.947-1.978q0-4.1,0-8.2c0-1.465.5-1.978,1.946-1.978q6.937,0,13.875,0h.856c-.014-.273-.005-.473-.037-.667a4.538,4.538,0,0,0-4.541-3.888c-5.408-.015-10.817-.005-16.225,0-.12,0-.24.017-.382.028V33.4H74.646Zm-.033-9.071H61.08v6.015H74.613ZM13.674,50.173a4.571,4.571,0,0,0,4.555-4.459,4.549,4.549,0,1,0-9.1-.012,4.573,4.573,0,0,0,4.542,4.471m12.115,0a4.573,4.573,0,0,0,4.578-4.512,4.549,4.549,0,1,0-9.1.017,4.573,4.573,0,0,0,4.519,4.494m38.3,0a4.576,4.576,0,0,0,4.514-4.5,4.549,4.549,0,1,0-9.1,0,4.571,4.571,0,0,0,4.584,4.505M68.277,9.1a4.4,4.4,0,0,0-4.263-3.012c-3.361-.013-6.721,0-10.082,0-.145,0-.289.017-.449.027V9.1ZM18.248,6.04h6V3.108h-6Zm32.1,27.379V30.881L47.78,33.419Z" transform="translate(0 0)" fill="#1d36e4"/>
    <path id="Path_2890" data-name="Path 2890" d="M101.992,77.365a10.352,10.352,0,0,1,2.951-6.262,9.33,9.33,0,0,1,1.211-1.144c1.373-1.094,2.424-1.145,3.752-.028a11.08,11.08,0,0,1,4.1,6.719,6.072,6.072,0,0,1-5.6,7.005,6.187,6.187,0,0,1-6.418-6.29m6.05-5.08a9.711,9.711,0,0,0-2.953,4.638,3.016,3.016,0,0,0,1.3,3.174,2.759,2.759,0,0,0,3.21.059,2.856,2.856,0,0,0,1.432-3.041,9.034,9.034,0,0,0-2.991-4.83" transform="translate(-81.318 -55.105)" fill="#1d36e4"/>
    <path id="Path_2891" data-name="Path 2891" d="M63.058,219.038a1.511,1.511,0,1,1-1.509-1.479,1.514,1.514,0,0,1,1.509,1.479" transform="translate(-47.866 -173.459)" fill="#1d36e4"/>
    <path id="Path_2892" data-name="Path 2892" d="M122.94,219.04a1.511,1.511,0,1,1-1.506-1.481,1.514,1.514,0,0,1,1.506,1.481" transform="translate(-95.61 -173.459)" fill="#1d36e4"/>
    <path id="Path_2893" data-name="Path 2893" d="M311.574,219.058a1.511,1.511,0,1,1-1.488-1.5,1.529,1.529,0,0,1,1.488,1.5" transform="translate(-246.007 -173.458)" fill="#1d36e4"/>
  </g>
</svg>
