<svg xmlns="http://www.w3.org/2000/svg" xmlns:xlink="http://www.w3.org/1999/xlink" width="70.379" height="70.377" viewBox="0 0 70.379 70.377">
  <defs>
    <clipPath id="clip-path">
      <rect id="Rectangle_3154" data-name="Rectangle 3154" width="70.379" height="70.377" fill="#fff"/>
    </clipPath>
  </defs>
  <g id="Group_4709" data-name="Group 4709" transform="translate(0)">
    <g id="Group_4708" data-name="Group 4708" transform="translate(0)" clip-path="url(#clip-path)">
      <path id="Path_2777" data-name="Path 2777" d="M24.982,34.053v-.908q0-14.648,0-29.3c0-2.5,1.347-3.849,3.855-3.849H66.575c2.457,0,3.811,1.357,3.811,3.823q0,18.869,0,37.737c0,2.5-1.351,3.844-3.863,3.844H38.6v.835q0,10.143,0,20.287c0,2.506-1.347,3.85-3.856,3.85q-15.464,0-30.927,0C1.368,70.376.01,69.012.01,66.551q0-14.329,0-28.657c0-2.5,1.349-3.84,3.864-3.84H24.982ZM38.6,43.134H66.5c1.29,0,1.618-.334,1.618-1.646q0-18.8,0-37.594c0-1.3-.331-1.623-1.64-1.623H28.882c-1.3,0-1.629.329-1.63,1.633q0,14.683,0,29.365v.784c2.6,0,5.108,0,7.612,0A3.428,3.428,0,0,1,38.6,37.806c0,1.746,0,3.492,0,5.328M19.235,68.106H34.7c1.3,0,1.632-.331,1.632-1.633q0-14.259,0-28.518c0-1.3-.33-1.631-1.633-1.631H3.911c-1.3,0-1.631.328-1.631,1.632q0,14.259,0,28.518c0,1.3.329,1.632,1.632,1.632H19.235" transform="translate(-0.007 0)" fill="#fff"/>
      <path id="Path_2778" data-name="Path 2778" d="M208.258,263.056h20.285c2.452,0,3.805-1.362,3.807-3.826s0-4.956,0-7.479h2.27c0,1.524.01,3.029,0,4.535a31.952,31.952,0,0,1-.107,4.244,5.53,5.53,0,0,1-5.624,4.792c-4.8.017-9.6,0-14.394.005h-.865l3.7,3.612-1.614,1.579-7.457-7.461" transform="translate(-168.782 -204.03)" fill="#fff"/>
      <path id="Path_2779" data-name="Path 2779" d="M0,75.37c0-2.353-.007-4.665,0-6.976a11.268,11.268,0,0,1,.1-1.905,5.6,5.6,0,0,1,5.576-4.7c4.066-.021,8.132-.006,12.2-.006H18.8l-3.747-3.672,1.56-1.485,7.427,7.428h-.606q-8.687,0-17.375,0a3.438,3.438,0,0,0-3.785,3.776q0,3.4,0,6.808v.729Z" transform="translate(0 -45.895)" fill="#fff"/>
      <path id="Path_2780" data-name="Path 2780" d="M272.837,258.507v-6.8h2.217c.013.188.039.39.039.592,0,1.984.007,3.968,0,5.952a2.289,2.289,0,0,1-2.519,2.5c-2.9,0-5.81,0-8.773,0v-2.245Z" transform="translate(-213.797 -203.997)" fill="#fff"/>
      <path id="Path_2781" data-name="Path 2781" d="M26.238,116.866h-2.21a1.522,1.522,0,0,1-.073-.325c0-2.149-.016-4.3,0-6.448a2.149,2.149,0,0,1,1.94-2.25c2.353-.076,4.71-.023,7.1-.023v2.22H26.238Z" transform="translate(-19.409 -87.368)" fill="#fff"/>
      <rect id="Rectangle_3138" data-name="Rectangle 3138" width="2.188" height="2.182" transform="translate(20.469 20.486)" fill="#fff"/>
      <rect id="Rectangle_3139" data-name="Rectangle 3139" width="2.207" height="2.173" transform="translate(15.92 20.474)" fill="#fff"/>
      <rect id="Rectangle_3140" data-name="Rectangle 3140" width="2.17" height="2.207" transform="translate(40.922 54.535)" fill="#fff"/>
      <rect id="Rectangle_3141" data-name="Rectangle 3141" width="2.203" height="2.19" transform="translate(45.446 54.519)" fill="#fff"/>
      <path id="Path_2782" data-name="Path 2782" d="M186.252,52.493c.357-1.444-.328-2.468-1.284-3.45a33.194,33.194,0,0,1-2.493-2.906,13.051,13.051,0,0,1-2.016-13.609,12.878,12.878,0,0,1,10.848-8.352,13.507,13.507,0,0,1,15.353,13.98,13.092,13.092,0,0,1-3.082,8.061c-1.083,1.313-2.225,2.578-3.3,3.9a2,2,0,0,0-.394,1.062c-.084,1.176.02,2.375-.156,3.534a6.737,6.737,0,0,1-7.147,5.634,6.841,6.841,0,0,1-6.327-6.574c-.012-.425,0-.851,0-1.277m10.281-3.335c.742-.165,1.529-.1,1.88-.46a48.024,48.024,0,0,0,3.653-4.242,10.89,10.89,0,0,0,2.154-8.888,11.339,11.339,0,1,0-19.982,9.137c.95,1.177,2.028,2.255,2.918,3.473a2.093,2.093,0,0,0,2.408.754c-.223-3.365-.446-6.723-.672-10.141-.509,0-.953,0-1.4,0a3.408,3.408,0,1,1,3.437-3.533c.026.413.067.826.1,1.24h4.056c.034-.459.067-.9.1-1.343a3.476,3.476,0,1,1,3.54,3.634c-.488.01-.978,0-1.508,0-.228,3.428-.45,6.77-.689,10.367M188.521,51.3c0,.852-.02,1.629,0,2.405a4.561,4.561,0,0,0,4.007,4.354,4.43,4.43,0,0,0,4.828-3.19,22.373,22.373,0,0,0,.322-3.569ZM191.17,38.83l.679,10.146h2.417c.225-3.387.449-6.745.675-10.146Zm-2.445-2.31c-.031-.5-.025-.907-.087-1.3a1.155,1.155,0,0,0-1.347-.959,1.14,1.14,0,0,0-1.039,1.142,1.126,1.126,0,0,0,1.139,1.114c.419.024.84,0,1.334,0m8.671-.047a2.545,2.545,0,0,0,.313.047c.33,0,.661.016.99,0a1.139,1.139,0,1,0-1.231-1.251c-.052.391-.049.79-.071,1.207" transform="translate(-145.381 -19.496)" fill="#fff"/>
      <rect id="Rectangle_3142" data-name="Rectangle 3142" width="2.184" height="2.182" transform="translate(29.551 4.596)" fill="#fff"/>
      <rect id="Rectangle_3143" data-name="Rectangle 3143" width="2.173" height="2.207" transform="translate(29.557 9.117)" fill="#fff"/>
      <rect id="Rectangle_3144" data-name="Rectangle 3144" width="2.178" height="2.191" transform="translate(29.567 13.667)" fill="#fff"/>
      <rect id="Rectangle_3145" data-name="Rectangle 3145" width="2.173" height="2.207" transform="translate(63.623 34.08)" fill="#fff"/>
      <rect id="Rectangle_3146" data-name="Rectangle 3146" width="2.184" height="2.183" transform="translate(63.617 29.545)" fill="#fff"/>
      <rect id="Rectangle_3147" data-name="Rectangle 3147" width="2.194" height="2.182" transform="translate(63.612 38.632)" fill="#fff"/>
      <path id="Path_2783" data-name="Path 2783" d="M68.249,214.035a10.582,10.582,0,0,1-2.24,6.445c-.652.84-1.347,1.646-1.973,2.5A2.162,2.162,0,0,0,63.685,224c-.084.8-.01,1.614-.152,2.4a5.632,5.632,0,0,1-5.968,4.551,5.527,5.527,0,0,1-5.188-5.4,5.368,5.368,0,0,0-1.552-4.031A11.3,11.3,0,0,1,47.84,215.3a10.324,10.324,0,0,1,8.539-11.452,10.2,10.2,0,0,1,11.706,8.566c.073.537.11,1.079.164,1.618m-11.483,7.841c.047-.109.081-.15.081-.191.007-1.3-.005-2.6.023-3.9a.86.86,0,0,0-.531-.927,3.308,3.308,0,0,1-1.61-3.865,3.4,3.4,0,1,1,4.938,3.893c-.211.126-.505.357-.511.547-.042,1.457-.023,2.917-.023,4.442.911,0,1.756.017,2.6-.014a.813.813,0,0,0,.506-.307c.761-.934,1.566-1.842,2.237-2.838a7.864,7.864,0,0,0,.6-8.331,7.906,7.906,0,0,0-14.053-.184,7.823,7.823,0,0,0,.5,8.515c.67,1,1.475,1.9,2.237,2.838a.813.813,0,0,0,.5.307c.843.032,1.688.014,2.5.014m-2.134,2.295c-.195,1.734.145,3.188,1.715,4.072A3.188,3.188,0,0,0,60,228.015a3.727,3.727,0,0,0,1.346-3.844Zm4.493-10.263a1.129,1.129,0,1,0-1.106,1.154,1.141,1.141,0,0,0,1.106-1.154" transform="translate(-38.697 -165.122)" fill="#fff"/>
      <rect id="Rectangle_3148" data-name="Rectangle 3148" width="2.17" height="2.207" transform="translate(31.842 38.619)" fill="#fff"/>
      <rect id="Rectangle_3149" data-name="Rectangle 3149" width="2.207" height="2.157" transform="translate(31.8 43.188)" fill="#fff"/>
      <rect id="Rectangle_3150" data-name="Rectangle 3150" width="2.157" height="2.207" transform="translate(31.839 47.722)" fill="#fff"/>
      <rect id="Rectangle_3151" data-name="Rectangle 3151" width="2.188" height="2.182" transform="translate(4.59 54.519)" fill="#fff"/>
      <rect id="Rectangle_3152" data-name="Rectangle 3152" width="2.183" height="2.18" transform="translate(4.573 59.064)" fill="#fff"/>
      <rect id="Rectangle_3153" data-name="Rectangle 3153" width="2.167" height="2.204" transform="translate(4.588 63.58)" fill="#fff"/>
    </g>
  </g>
</svg>
