<svg xmlns="http://www.w3.org/2000/svg" xmlns:xlink="http://www.w3.org/1999/xlink" width="75.63" height="75.631" viewBox="0 0 75.63 75.631">
  <defs>
    <clipPath id="clip-path">
      <rect id="Rectangle_3137" data-name="Rectangle 3137" width="75.63" height="75.631" fill="#fff"/>
    </clipPath>
  </defs>
  <g id="Group_4707" data-name="Group 4707" transform="translate(0)">
    <g id="Group_4706" data-name="Group 4706" transform="translate(0)" clip-path="url(#clip-path)">
      <path id="Path_2772" data-name="Path 2772" d="M97.407,137.421c-1.459-.195-2.926-.343-4.377-.592a37.018,37.018,0,0,1-15.251-6.363,1.483,1.483,0,1,1,1.709-2.4,35.567,35.567,0,0,0,11.875,5.41A34.888,34.888,0,0,0,134.3,96.134a34.009,34.009,0,0,0-4.3-13.615c-.1-.185-.23-.358-.419-.651-.31.888-.577,1.667-.855,2.442-.356.994-1.069,1.419-1.9,1.146a1.491,1.491,0,0,1-.888-2.094q.888-2.657,1.805-5.3a1.443,1.443,0,0,1,1.931-.988q2.769.9,5.511,1.877a1.471,1.471,0,0,1,1.008,1.866,1.487,1.487,0,0,1-1.969.916c-.465-.138-.923-.3-1.438-.47.7,1.558,1.406,3.025,2.014,4.533a36.165,36.165,0,0,1,2.5,10.883,6.888,6.888,0,0,0,.127.713v4.431c-.042.212-.088.423-.124.635-.409,2.395-.635,4.838-1.253,7.177a37.7,37.7,0,0,1-29.92,27.214c-1.377.231-2.766.384-4.15.574Z" transform="translate(-61.802 -61.79)" fill="#fff"/>
      <path id="Path_2773" data-name="Path 2773" d="M83.054,56.323c1.624,0,3.249-.007,4.873,0,1.284.007,1.8.52,1.805,1.791.008,1.6.013,3.2,0,4.8a.839.839,0,0,0,.514.825c1.4.889,2.407.568,3.378-.709A22.967,22.967,0,0,1,96,60.615a1.5,1.5,0,0,1,2.384,0q3.56,3.541,7.1,7.1a1.48,1.48,0,0,1,.006,2.331q-1.727,1.771-3.5,3.5a.691.691,0,0,0-.2.954c.31.581.4,1.431.864,1.736s1.283.1,1.945.1c1.132.006,2.264-.007,3.4,0,1.189.013,1.744.535,1.749,1.7q.021,4.984,0,9.969c-.005,1.161-.565,1.686-1.754,1.694-1.6.01-3.2.028-4.8-.012-.519-.013-.663.235-.909.625-.842,1.332-.506,2.273.685,3.2a24.871,24.871,0,0,1,2.469,2.433,1.519,1.519,0,0,1-.009,2.439q-3.49,3.506-7,7a1.53,1.53,0,0,1-2.489,0c-1.156-1.141-2.307-2.287-3.442-3.45-.281-.288-.529-.4-.891-.17a1.46,1.46,0,0,1-.538.235c-1.247.2-1.452.978-1.364,2.1.1,1.3.032,2.607.02,3.912A1.5,1.5,0,0,1,88,109.719q-4.947.014-9.893,0A1.5,1.5,0,0,1,76.378,108c-.011-1.6-.029-3.2.011-4.8.013-.541-.236-.707-.656-.967-1.31-.81-2.229-.474-3.137.678a27.147,27.147,0,0,1-2.487,2.52,1.5,1.5,0,0,1-2.383-.007q-3.56-3.54-7.1-7.1a1.48,1.48,0,0,1,0-2.329q1.73-1.768,3.5-3.5a.694.694,0,0,0,.2-.955c-.308-.582-.4-1.431-.863-1.737s-1.282-.1-1.945-.1c-1.157-.007-2.313.009-3.47-.006a1.493,1.493,0,0,1-1.677-1.694q-.02-4.984,0-9.969c0-1.164.56-1.689,1.75-1.7,1.6-.012,3.2-.028,4.8.011.515.012.665-.226.912-.62.838-1.331.511-2.274-.682-3.2A25.557,25.557,0,0,1,60.672,70.1a1.516,1.516,0,0,1,0-2.437q3.491-3.505,7-7a1.535,1.535,0,0,1,2.491-.005c1.122,1.106,2.249,2.207,3.332,3.351a.823.823,0,0,0,1.2.192.924.924,0,0,1,.333-.154c1.18-.191,1.465-.894,1.368-2.024-.113-1.32-.035-2.656-.023-3.985.01-1.171.543-1.705,1.73-1.715,1.649-.014,3.3,0,4.947,0M102.381,97.1c-.124-.132-.283-.313-.452-.483-1.008-1.011-2.022-2.016-3.026-3.032a1.566,1.566,0,0,1-.359-2.121q.765-1.713,1.44-3.466a1.571,1.571,0,0,1,1.688-1.243c1.132-.015,2.264,0,3.4,0h1.684v-7.46c-1.641,0-3.236,0-4.831,0-1.245,0-1.6-.291-2.009-1.425-.386-1.059-.817-2.106-1.293-3.128-.505-1.087-.474-1.521.369-2.362,1.148-1.146,2.3-2.286,3.358-3.334l-5.32-5.318c-1.1,1.117-2.271,2.315-3.458,3.494a1.545,1.545,0,0,1-2.067.315q-1.712-.766-3.465-1.442a1.6,1.6,0,0,1-1.253-1.756c-.01-1.034,0-2.068,0-3.1V59.324H79.328c0,1.665,0,3.285,0,4.9,0,1.159-.331,1.541-1.426,1.939-1.059.385-2.1.817-3.127,1.292a1.661,1.661,0,0,1-2.366-.37c-1.149-1.145-2.292-2.3-3.34-3.347l-5.335,5.275c1.147,1.137,2.343,2.307,3.522,3.494a1.522,1.522,0,0,1,.345,2q-.78,1.788-1.5,3.6a1.546,1.546,0,0,1-1.66,1.176c-1.255.013-2.511,0-3.766,0H59.356v7.46c1.64,0,3.234,0,4.829,0,1.242,0,1.6.3,2.01,1.425.386,1.059.817,2.106,1.292,3.128.505,1.086.475,1.526-.362,2.367-1.144,1.151-2.293,2.3-3.338,3.34l5.28,5.3c1.115-1.12,2.289-2.312,3.477-3.488a1.512,1.512,0,0,1,2-.347q1.788.777,3.6,1.494a1.555,1.555,0,0,1,1.179,1.663c.015,1.255,0,2.511,0,3.767v1.315h7.453c0-1.692-.006-3.337,0-4.982a1.6,1.6,0,0,1,1.3-1.794c1.1-.415,2.2-.856,3.263-1.352,1.084-.5,1.514-.475,2.362.37,1.148,1.145,2.291,2.3,3.414,3.421l5.261-5.282" transform="translate(-45.234 -45.208)" fill="#fff"/>
      <path id="Path_2774" data-name="Path 2774" d="M7.859,55.555c.316-.91.582-1.693.861-2.472a1.484,1.484,0,1,1,2.794.933q-.884,2.658-1.8,5.3a1.463,1.463,0,0,1-1.974,1.028c-1.845-.6-3.68-1.235-5.51-1.881a1.471,1.471,0,1,1,.947-2.784c.486.141.965.31,1.464.471C3.9,54.48,3.131,52.894,2.5,51.255a37.732,37.732,0,0,1,9.127-40.69A36.855,36.855,0,0,1,31.753.5,37.327,37.327,0,0,1,59.579,6.9a1.516,1.516,0,0,1,.6,2.2,1.491,1.491,0,0,1-2.268.228A33.981,33.981,0,0,0,41.9,3.21a34.017,34.017,0,0,0-26.607,8.067A33.789,33.789,0,0,0,3.334,32.854,34.17,34.17,0,0,0,7.6,55.183c.048.084.111.159.261.372" transform="translate(0 0)" fill="#fff"/>
      <path id="Path_2775" data-name="Path 2775" d="M133.84,148.046a14.217,14.217,0,1,1,14.236-14.193,14.2,14.2,0,0,1-14.236,14.193m.027-25.479a11.262,11.262,0,1,0,11.255,11.268,11.236,11.236,0,0,0-11.255-11.268" transform="translate(-96.042 -96.014)" fill="#fff"/>
      <path id="Path_2776" data-name="Path 2776" d="M187.145,157.1c1.234,0,2.362-.007,3.49,0,1.03.009,1.671.57,1.685,1.451.014.917-.634,1.495-1.708,1.5q-2.359.011-4.718,0a1.5,1.5,0,0,1-1.7-1.665q-.016-3.133,0-6.267a1.479,1.479,0,0,1,1.456-1.675c.92-.009,1.488.632,1.493,1.714.008,1.617,0,3.235,0,4.942" transform="translate(-147.848 -120.766)" fill="#fff"/>
    </g>
  </g>
</svg>
