<svg id="Group_4723" data-name="Group 4723" xmlns="http://www.w3.org/2000/svg" xmlns:xlink="http://www.w3.org/1999/xlink" width="75.347" height="75.333" viewBox="0 0 75.347 75.333">
  <defs>
    <clipPath id="clip-path">
      <rect id="Rectangle_3164" data-name="Rectangle 3164" width="75.347" height="75.333" fill="#1d36e4"/>
    </clipPath>
  </defs>
  <g id="Group_4722" data-name="Group 4722" clip-path="url(#clip-path)">
    <path id="Path_2826" data-name="Path 2826" d="M0,134.907a1.877,1.877,0,0,1,1.8-.875q10.739.023,21.478.01c1.439,0,1.841.4,1.844,1.834,0,1.86,0,3.721,0,5.663.3.015.563.037.821.038,1.667,0,3.335.011,5,0a2.134,2.134,0,0,1,1.636.674q2.813,2.856,5.67,5.669a2.141,2.141,0,0,1,.681,1.632c-.011,3.482,0,6.963-.008,10.445,0,1.255-.439,1.677-1.682,1.687a1.554,1.554,0,0,1-.22,0,2.29,2.29,0,0,0-2.771,1.437,4.351,4.351,0,0,1-4.731,2.254,4.818,4.818,0,0,1-4-3.055c-.08-.178-.149-.361-.224-.541a.629.629,0,0,0-.076-.093c-3.3,0-6.635-.006-9.968.017a.715.715,0,0,0-.493.389,5,5,0,0,1-9.417.041.845.845,0,0,0-.608-.428c-.979-.046-1.962-.053-2.941-.01A1.787,1.787,0,0,1,0,160.8Zm22.556,1.7H2.549v13.726H22.556Zm2.68,22.565c.084-.205.147-.364.213-.522a4.981,4.981,0,0,1,4.581-3.241,5.048,5.048,0,0,1,4.653,2.915c.464.967.517.991,1.658.752a.83.83,0,0,0,.052-.2c.005-2.966.017-5.932-.007-8.9A1.236,1.236,0,0,0,36,149.24c-1.39-1.418-2.835-2.783-4.19-4.232a2.6,2.6,0,0,0-2.23-.935c-1.46.08-2.929.021-4.461.021v.89q0,3.015,0,6.03c0,1.5-.365,1.86-1.869,1.86H2.559v6.3c.784,0,1.518.025,2.247-.018a.72.72,0,0,0,.494-.39,5.025,5.025,0,0,1,9.472-.015.775.775,0,0,0,.554.406c3.284.025,6.567.018,9.911.018m4.867,3.739a2.509,2.509,0,0,0,2.543-2.5,2.547,2.547,0,0,0-2.482-2.5,2.5,2.5,0,0,0-2.521,2.44,2.467,2.467,0,0,0,2.461,2.559m-17.568-2.484a2.505,2.505,0,0,0-2.448-2.516,2.554,2.554,0,0,0-2.559,2.5,2.519,2.519,0,0,0,2.544,2.5,2.471,2.471,0,0,0,2.463-2.485" transform="translate(0 -107.687)" fill="#1d36e4"/>
    <path id="Path_2827" data-name="Path 2827" d="M192.2,301.214c-.965-.548-.874-1.489-.856-2.506h-.8q-4.963,0-9.926,0c-1.413,0-1.808-.389-1.81-1.773,0-.809.034-1.619-.006-2.426a5.248,5.248,0,0,1,3.338-5.558,5.127,5.127,0,0,1-.513-4.5A4.94,4.94,0,0,1,183.529,282a5.014,5.014,0,0,1,6.068.364c1.865,1.594,2.2,3.83.952,6.61a5.355,5.355,0,0,1,3.011,3.03l1.1-.535c-1.286-2.931-.881-5.163,1.217-6.8a5.039,5.039,0,0,1,6.017,0c2.081,1.625,2.486,3.855,1.22,6.806l1.1.532a5.262,5.262,0,0,1,3.05-3.022,5.177,5.177,0,0,1-.481-4.665,4.794,4.794,0,0,1,1.92-2.354,5.014,5.014,0,0,1,6.119.5c1.767,1.552,2.072,3.855.835,6.485.166.086.334.172.5.261a4.917,4.917,0,0,1,2.8,4.346c.054,1.2.022,2.4.013,3.6-.008,1.095-.47,1.554-1.584,1.557-3.358.007-6.715,0-10.073,0h-.858c-.037.958.107,1.946-.871,2.506Zm1.734-2.558h9.929c0-.976.072-1.906-.018-2.821a2.336,2.336,0,0,0-2.326-2.124q-2.64-.051-5.282,0a2.3,2.3,0,0,0-2.281,2,26.662,26.662,0,0,0-.022,2.942m12.553-2.5h9.955c0-.969.071-1.9-.018-2.818a2.349,2.349,0,0,0-2.265-2.129q-2.72-.07-5.442,0a2.284,2.284,0,0,0-2.207,1.925,27.817,27.817,0,0,0-.023,3.021m-15.155.016c0-.927.032-1.782-.007-2.633a2.383,2.383,0,0,0-2.36-2.337c-1.76-.042-3.522-.037-5.282,0a2.227,2.227,0,0,0-2.244,1.855,22.032,22.032,0,0,0-.031,3.115Zm-4.974-12.516a2.5,2.5,0,0,0-2.534,2.5,2.538,2.538,0,0,0,2.484,2.495,2.507,2.507,0,0,0,2.517-2.445,2.468,2.468,0,0,0-2.467-2.553m22.6,2.5a2.509,2.509,0,0,0,2.469,2.5,2.554,2.554,0,0,0,2.537-2.522,2.507,2.507,0,0,0-2.49-2.477,2.469,2.469,0,0,0-2.517,2.5m-10.1.008a2.5,2.5,0,0,0-2.47,2.487,2.5,2.5,0,1,0,5,.006,2.477,2.477,0,0,0-2.529-2.493" transform="translate(-143.645 -225.881)" fill="#1d36e4"/>
    <path id="Path_2828" data-name="Path 2828" d="M191.372,20.322c.348-.207.575-.336.8-.474q3.489-2.182,6.975-4.37a1.494,1.494,0,0,1,1.645-.229,1.466,1.466,0,0,1,.644,1.463c0,1.149,0,2.3,0,3.544.26-.126.434-.193.59-.29,2.141-1.335,4.271-2.688,6.425-4a1.011,1.011,0,0,0,.534-1.008c-.016-4.389-.011-8.777-.009-13.166,0-1.408.381-1.787,1.784-1.788q3.273,0,6.546,0c1.267,0,1.7.421,1.7,1.658q0,15.3,0,30.6c0,1.2-.426,1.63-1.647,1.631q-18.425.006-36.851,0c-1.265,0-1.671-.415-1.672-1.676,0-3.089.014-6.179-.012-9.268a1.715,1.715,0,0,1,.915-1.617q4.719-2.919,9.411-5.881a1.458,1.458,0,0,1,1.581-.208,1.427,1.427,0,0,1,.648,1.454c-.016,1.151,0,2.3,0,3.629m20.165-1.546h4.922V2.543h-4.922Zm-10.106,12.56h7.478V18.625c-1.665,1.039-3.242,2.018-4.814,3.006-.87.547-2.071.924-2.5,1.715-.446.82-.153,2.049-.161,3.1-.011,1.612,0,3.224,0,4.891M188.82,18.713a1.048,1.048,0,0,0-.241.067c-2.308,1.438-4.619,2.869-6.909,4.335a.984.984,0,0,0-.317.719c-.029,1.421-.014,2.843-.014,4.265v3.228h7.482Zm10.033,12.628V18.705a1.7,1.7,0,0,0-.259.1c-2.285,1.424-4.575,2.839-6.841,4.292a1.051,1.051,0,0,0-.365.769c-.028,2.3-.017,4.6-.014,6.907,0,.186.036.372.057.57ZM216.444,21.4h-4.906v9.946h4.906Z" transform="translate(-143.672 0)" fill="#1d36e4"/>
    <path id="Path_2829" data-name="Path 2829" d="M347.062,185.495c-.049.876-.093,1.672-.143,2.55l-2.48-.193c.037-.778.073-1.541.111-2.356Z" transform="translate(-276.737 -149.034)" fill="#1d36e4"/>
    <path id="Path_2830" data-name="Path 2830" d="M85.032,314.362,82.95,312.81l1.568-1.954,1.934,1.44-1.421,2.066" transform="translate(-66.645 -249.754)" fill="#1d36e4"/>
    <path id="Path_2831" data-name="Path 2831" d="M341.061,209.7l2.466.409L343,212.65l-2.427-.6.483-2.35" transform="translate(-273.634 -168.484)" fill="#1d36e4"/>
    <path id="Path_2832" data-name="Path 2832" d="M42.458,109.174l1.248-2.3,2.15,1.287-1.141,2.106-2.257-1.093" transform="translate(-34.112 -85.867)" fill="#1d36e4"/>
    <path id="Path_2833" data-name="Path 2833" d="M104.795,326.916l1.249-2.178,2.131,1.1-1.056,2.263-2.324-1.189" transform="translate(-84.196 -260.907)" fill="#1d36e4"/>
    <path id="Path_2834" data-name="Path 2834" d="M117.971,38.367l.97,2.308-2.175,1.019-1.149-2.219,2.354-1.109" transform="translate(-92.891 -30.826)" fill="#1d36e4"/>
    <path id="Path_2835" data-name="Path 2835" d="M240.507,36.605l.8-2.366,2.425.911-.972,2.306-2.253-.851" transform="translate(-193.233 -27.509)" fill="#1d36e4"/>
    <path id="Path_2836" data-name="Path 2836" d="M57.65,85.218l1.916,1.6-1.45,1.909L56.07,87.286l1.58-2.068" transform="translate(-45.049 -68.467)" fill="#1d36e4"/>
    <path id="Path_2837" data-name="Path 2837" d="M333.74,233.482l2.373.8-.91,2.427-2.305-.963.842-2.26" transform="translate(-267.463 -187.589)" fill="#1d36e4"/>
    <path id="Path_2838" data-name="Path 2838" d="M77.15,68.179,75.394,69.83l-1.652-1.871,1.749-1.669,1.659,1.889" transform="translate(-59.247 -53.26)" fill="#1d36e4"/>
    <path id="Path_2839" data-name="Path 2839" d="M321.562,258.165l1.2-2.08,2.222,1.154-1.3,2.258-2.122-1.332" transform="translate(-258.356 -205.749)" fill="#1d36e4"/>
    <path id="Path_2840" data-name="Path 2840" d="M219.18,30.788l-2.339-.49.38-2.463,2.541.512-.581,2.441" transform="translate(-174.219 -22.364)" fill="#1d36e4"/>
    <path id="Path_2841" data-name="Path 2841" d="M192.629,25.482l2.541.153-.2,2.489-2.336-.134Z" transform="translate(-154.766 -20.473)" fill="#1d36e4"/>
    <path id="Path_2842" data-name="Path 2842" d="M129.73,335.146l2.27.773-.683,2.4-2.467-.819.879-2.351" transform="translate(-103.524 -269.269)" fill="#1d36e4"/>
    <path id="Path_2843" data-name="Path 2843" d="M157,344.844l-2.559-.408.472-2.447,2.362.365c-.09.813-.177,1.6-.275,2.49" transform="translate(-124.082 -274.767)" fill="#1d36e4"/>
    <path id="Path_2844" data-name="Path 2844" d="M95.228,50.5l1.324,2.128-1.987,1.359-1.49-2.022L95.228,50.5" transform="translate(-74.78 -40.573)" fill="#1d36e4"/>
    <path id="Path_2845" data-name="Path 2845" d="M143.168,32.581l-2.3.657-.794-2.371,2.506-.71.589,2.423" transform="translate(-112.54 -24.23)" fill="#1d36e4"/>
    <path id="Path_2846" data-name="Path 2846" d="M266.431,45.961l-1.336,2.116-2.085-1.2,1.169-2.219,2.252,1.306" transform="translate(-211.313 -35.878)" fill="#1d36e4"/>
    <path id="Path_2847" data-name="Path 2847" d="M166.311,28.767c-.135-.853-.252-1.6-.386-2.446L168.5,26c.062.853.119,1.641.181,2.5l-2.375.272" transform="translate(-133.311 -20.888)" fill="#1d36e4"/>
    <path id="Path_2848" data-name="Path 2848" d="M65.834,297.911l1.7-1.564,1.366,1.311-1.653,1.751-1.408-1.5" transform="translate(-52.894 -238.097)" fill="#1d36e4"/>
    <rect id="Rectangle_3161" data-name="Rectangle 3161" width="2.404" height="3.667" transform="translate(60.328 25.163)" fill="#1d36e4"/>
    <rect id="Rectangle_3162" data-name="Rectangle 3162" width="2.438" height="3.63" transform="translate(40.196 25.181)" fill="#1d36e4"/>
    <rect id="Rectangle_3163" data-name="Rectangle 3163" width="2.391" height="3.655" transform="translate(50.273 25.168)" fill="#1d36e4"/>
  </g>
</svg>
