<svg id="Group_4727" data-name="Group 4727" xmlns="http://www.w3.org/2000/svg" xmlns:xlink="http://www.w3.org/1999/xlink" width="70.231" height="61.346" viewBox="0 0 70.231 61.346">
  <defs>
    <clipPath id="clip-path">
      <rect id="Rectangle_3166" data-name="Rectangle 3166" width="70.231" height="61.346" fill="#1d36e4"/>
    </clipPath>
  </defs>
  <g id="Group_4726" data-name="Group 4726" clip-path="url(#clip-path)">
    <path id="Path_2859" data-name="Path 2859" d="M44.073,19.7a4.487,4.487,0,0,1-2.472-1.62,1.191,1.191,0,0,0-1.208-.554,4.29,4.29,0,0,1-2.418-.374,3.083,3.083,0,0,1-1.723-2.663,38.962,38.962,0,0,1,.009-3.9A4.276,4.276,0,0,1,40.517,6.6a.711.711,0,0,0,.74-.459c.595-1.237,1.219-2.46,1.834-3.688a4.1,4.1,0,0,1,3.9-2.435c2.408-.007,4.817,0,7.225,0a4.155,4.155,0,0,1,3.676,2.006c.925,1.407,1.87,2.8,2.8,4.206a.729.729,0,0,0,.682.368,6.517,6.517,0,0,1,6.641,6.7,6.647,6.647,0,0,1-.238,2.133,3.092,3.092,0,0,1-2.942,2.109,1.5,1.5,0,0,1-.266,0,2.1,2.1,0,0,0-2.256.9,4.1,4.1,0,0,1-2.178,1.291c1.544,0,3.088-.021,4.632.006A3.115,3.115,0,0,1,67.7,21.6a3.273,3.273,0,0,1-2.982,4.7q-6.649.015-13.3-.009a.676.676,0,0,0-.779.54c-1.263,3.7-2.55,7.394-3.831,11.089q-1.661,4.789-3.324,9.577c-.076.22-.143.442-.224.693h7.216v-.565q0-7.867,0-15.735A3.254,3.254,0,0,1,52.926,28.6a3.6,3.6,0,0,1,.918-.113q1.64-.02,3.28,0A5.439,5.439,0,0,1,62.4,32.276q1.5,4.445,2.961,8.906a1.646,1.646,0,0,0,.985,1.131,6.309,6.309,0,0,1,2.841,2.111,5.41,5.41,0,0,1,1.03,3.1q.032,3.08,0,6.161a3.292,3.292,0,0,1-3.234,3.277c-.411.013-.824,0-1.247,0a5.726,5.726,0,0,1-1.561,2.815,5.469,5.469,0,0,1-9.037-2.268c-.132-.422-.292-.566-.747-.559-1.905.032-3.812.013-5.718.013h-.488a5.64,5.64,0,0,1-2.031,3.224A5.467,5.467,0,0,1,37.6,57.55a.7.7,0,0,0-.815-.593c-2.984.025-5.969.013-8.953.013h-.469c-.744,2.565-2.361,4.174-5.024,4.329-3.044.177-4.907-1.473-5.836-4.429a4.262,4.262,0,0,0-.217.456,5.492,5.492,0,0,1-10.424.458c-.095-.262-.182-.526-.28-.813-.7,0-1.395,0-2.088,0A3.312,3.312,0,0,1,.024,53.479q0-1.995,0-3.989A1.127,1.127,0,0,1,1.3,48.2c.133,0,.266,0,.4,0,.852,0,.847,0,1.12-.79Q6,38.21,9.2,29.008c.3-.877.6-1.756.926-2.707H9.616c-2.083,0-4.167,0-6.25,0A3.281,3.281,0,0,1,2.353,19.88a3.8,3.8,0,0,1,1.089-.146c1.487-.016,2.974-.007,4.461-.007a11.33,11.33,0,0,1-1.57-.787A11.958,11.958,0,0,1,5.169,17.8a.922.922,0,0,0-.5-.259,18.477,18.477,0,0,1-1.984-.1A3.059,3.059,0,0,1,.063,14.561,25.306,25.306,0,0,1,.12,10.271,4.206,4.206,0,0,1,4.3,6.6a.765.765,0,0,0,.794-.512C5.683,4.851,6.309,3.629,6.927,2.4A3.971,3.971,0,0,1,10.589.028C13.13-.013,15.672,0,18.213.022A3.967,3.967,0,0,1,21.6,1.883Q23.054,4.031,24.478,6.2a.751.751,0,0,0,.707.4,6.54,6.54,0,0,1,6.646,6.7,7.516,7.516,0,0,1-.188,1.968,3.17,3.17,0,0,1-3.01,2.268,1.65,1.65,0,0,1-.222,0,2.134,2.134,0,0,0-2.3.91A3.812,3.812,0,0,1,23.957,19.7ZM17.832,48.188a3.847,3.847,0,0,1-2.248-1.308,2.093,2.093,0,0,0-2.257-.886,1.439,1.439,0,0,1-.177,0,3.219,3.219,0,0,1-3.232-3.156c-.03-1.181-.035-2.365,0-3.546a4.292,4.292,0,0,1,4.317-4.212.673.673,0,0,0,.7-.454c.605-1.248,1.228-2.488,1.853-3.727a4.062,4.062,0,0,1,3.825-2.411q3.7-.029,7.4,0a4.025,4.025,0,0,1,3.472,1.881c.942,1.395,1.88,2.793,2.8,4.2a.982.982,0,0,0,.916.512,6.387,6.387,0,0,1,5.91,3.817,8.056,8.056,0,0,1,.588,3.945,3.249,3.249,0,0,1-3.161,3.145c-.5.011-1.006-.014-1.506.013a.755.755,0,0,0-.424.222A11.016,11.016,0,0,1,35.414,47.4a11.63,11.63,0,0,1-1.622.808c2.282,0,4.6,0,6.913-.012.107,0,.268-.161.31-.279.794-2.255,1.575-4.515,2.358-6.774q2.306-6.652,4.612-13.3c.171-.494.335-.992.517-1.535H13.95c-.4,0-.8.011-1.2,0a.357.357,0,0,0-.411.289q-1.5,4.354-3.012,8.7Q7.35,41,5.371,46.707c-.167.481-.323.966-.495,1.481ZM60.274,32.863a4.1,4.1,0,0,0-.159-.4,3.26,3.26,0,0,0-3-1.791c-1.034-.015-2.069-.005-3.1,0-.954,0-1.345.4-1.345,1.349q0,11.126,0,22.252v.47h2.272c.774-2.616,2.449-4.232,5.2-4.321,2.962-.1,4.766,1.552,5.63,4.34.324,0,.648,0,.972,0,.882-.007,1.28-.395,1.282-1.268,0-1.936.006-3.871,0-5.807a3.25,3.25,0,0,0-1.947-3.073c-.382-.192-.756-.408-1.151-.568a2.5,2.5,0,0,0-.884-.211c-1.935-.019-3.871,0-5.807-.013a3.276,3.276,0,0,1-3.36-3.366q-.009-2.128,0-4.255a3.272,3.272,0,0,1,3.338-3.338c.663,0,1.327,0,2.064,0m-22.9,10.962c.325,0,.663.011,1,0A1.1,1.1,0,0,0,39.508,42.7a10.388,10.388,0,0,0-.016-1.328,4.366,4.366,0,0,0-4.51-4.137q-5.406,0-10.812,0-4.874,0-9.749,0a2.2,2.2,0,0,0-2.328,2.116c-.038,1.121-.021,2.245,0,3.367a1.054,1.054,0,0,0,.936,1.069,10.39,10.39,0,0,0,1.221.009c.518-2.8,1.966-4.274,4.268-4.359a4.258,4.258,0,0,1,2.78.86,4.5,4.5,0,0,1,1.8,3.487h5.422a4.45,4.45,0,0,1,4.32-4.353c2.384-.045,3.908,1.4,4.546,4.388M27.5,15.323c.413,0,.811.024,1.206-.006a.942.942,0,0,0,.883-.805,6.445,6.445,0,0,0-.2-2.8,4.377,4.377,0,0,0-4.263-2.94q-4.653,0-9.305,0-5.65,0-11.3,0a2.154,2.154,0,0,0-2.28,1.964c-.053,1.194-.026,2.392-.013,3.588a.982.982,0,0,0,.776.961,10.894,10.894,0,0,0,1.384.013c.4-2.583,1.833-4.13,3.976-4.318a4.312,4.312,0,0,1,2.827.695,4.419,4.419,0,0,1,2.013,3.63h5.427c.571-2.884,2.048-4.323,4.425-4.339,2.33-.016,3.843,1.454,4.442,4.359M40.6,15.309a4.412,4.412,0,0,1,4.156-4.34c2.489-.109,4.108,1.387,4.687,4.342h5.409a4.47,4.47,0,0,1,1.185-2.944,4.309,4.309,0,0,1,2.882-1.393,4.228,4.228,0,0,1,2.774.728,4.5,4.5,0,0,1,1.984,3.631c.4,0,.756.014,1.108,0a1.036,1.036,0,0,0,1.039-1.051c.016-.295,0-.591,0-.886a4.373,4.373,0,0,0-4.649-4.626H52.487q-5.871,0-11.743,0a2.192,2.192,0,0,0-2.332,2.112c-.034,1.122-.018,2.245,0,3.367a1.041,1.041,0,0,0,.847,1.051,11.9,11.9,0,0,0,1.34.011m9.426,6.614h-35.5a2.248,2.248,0,0,0-.354.007c-.078.013-.2.051-.217.107-.247.666-.479,1.338-.733,2.059H47.824c.384,0,.77.022,1.151-.011a.523.523,0,0,0,.384-.244c.234-.6.427-1.222.662-1.918M27.35,54.743H37.411a5.711,5.711,0,0,1,4.35-4.331H22.99a5.7,5.7,0,0,1,4.36,4.331M63.138,41.627c.009-.08.023-.112.014-.136-.682-2.059-1.361-4.118-2.061-6.171a.5.5,0,0,0-.38-.243c-.812-.022-1.625-.016-2.437-.01a1.1,1.1,0,0,0-1.22,1.242q-.01,2.016,0,4.033a1.126,1.126,0,0,0,1.278,1.284c1.256,0,2.511,0,3.767,0h1.041M10.989,59.14a3.279,3.279,0,1,0-3.28-3.295,3.275,3.275,0,0,0,3.28,3.295m49.362,0a3.279,3.279,0,1,0-3.295-3.285,3.279,3.279,0,0,0,3.295,3.285m-17.544,0a3.277,3.277,0,1,0-3.29-3.28,3.272,3.272,0,0,0,3.29,3.28m-20.833,0a3.281,3.281,0,1,0-3.29-3.278,3.273,3.273,0,0,0,3.29,3.278M51.606,24.1H64.087c.236,0,.473.008.709,0a1.057,1.057,0,0,0,1.021-1.114,1.033,1.033,0,0,0-.955-1.038c-.323-.03-.649-.016-.974-.016q-5.563,0-11.126.01a.614.614,0,0,0-.481.228c-.249.612-.442,1.247-.675,1.933M14.275,2.218c-1.33,0-2.612-.038-3.891.016a1.7,1.7,0,0,0-1.42,1.006c-.227.431-.44.868-.657,1.3-.325.652-.649,1.305-1,2.005h6.965Zm36.17,4.335V2.233a1.932,1.932,0,0,0-.238-.032c-1.151,0-2.3-.028-3.452.018a1.813,1.813,0,0,0-1.011.371,3.294,3.294,0,0,0-.758,1.006c-.512.956-.981,1.936-1.493,2.959ZM24.123,30.7c-1.3,0-2.551-.029-3.8.011a1.765,1.765,0,0,0-1.541,1.107c-.191.383-.388.763-.578,1.146-.338.68-.672,1.362-1.025,2.078h6.946ZM9.977,50.42H2.222c0,1.081-.005,2.125,0,3.17a1.072,1.072,0,0,0,1.15,1.17c.634.011,1.269-.008,1.9.008.25.006.326-.091.43-.316a11.565,11.565,0,0,1,1.1-2.091A5.4,5.4,0,0,1,9.977,50.42m12.2-30.7a4.814,4.814,0,0,1-2.7-1.865.672.672,0,0,0-.651-.324q-2.9.012-5.8,0a.679.679,0,0,0-.65.333,4.091,4.091,0,0,1-2.026,1.576c-.222.082-.446.161-.783.283Zm36.16,0a9.8,9.8,0,0,1-1.561-.786,13.386,13.386,0,0,1-1.266-1.278.616.616,0,0,0-.4-.115c-1.993-.007-3.985-.011-5.978.006a.851.851,0,0,0-.5.254,10.46,10.46,0,0,1-1.091,1.082,13.158,13.158,0,0,1-1.622.836ZM32.1,48.194a4.863,4.863,0,0,1-2.918-2.067c-.059-.09-.254-.126-.386-.126-1.991-.008-3.983-.013-5.974.007a.761.761,0,0,0-.52.287,4.6,4.6,0,0,1-1.856,1.529c-.309.137-.642.223-1.079.37ZM11.645,21.921H3.718a4.869,4.869,0,0,0-.487.012,1.08,1.08,0,0,0,.064,2.158q3.655.013,7.311,0a.432.432,0,0,0,.339-.178c.242-.63.453-1.273.7-1.987M52.7,2.232V6.548h5.592c-.87-1.282-1.669-2.522-2.545-3.7a1.722,1.722,0,0,0-1.048-.585,14.028,14.028,0,0,0-2-.026M31.907,35.039a.766.766,0,0,0-.051-.16c-.761-1.142-1.5-2.3-2.3-3.411a1.785,1.785,0,0,0-.987-.682,16.409,16.409,0,0,0-2.2-.149v4.4ZM16.507,6.547h5.58c-.844-1.256-1.616-2.477-2.473-3.635a1.873,1.873,0,0,0-1.106-.649,12.432,12.432,0,0,0-2-.029ZM50.452,50.425H43.791a5.614,5.614,0,0,1,4.325,4.07c.028.1.119.248.184.249.716.018,1.432.011,2.152.011ZM23.089,13.165a2.189,2.189,0,0,0-2.232,2.159,2.2,2.2,0,1,0,4.395.018,2.172,2.172,0,0,0-2.163-2.177m-14.268,0A2.181,2.181,0,0,0,6.6,15.336,2.2,2.2,0,1,0,11,15.329a2.175,2.175,0,0,0-2.176-2.164M32.952,46a2.185,2.185,0,1,0-2.2-2.172A2.177,2.177,0,0,0,32.952,46M59.246,13.166a2.182,2.182,0,0,0-2.193,2.195,2.2,2.2,0,0,0,4.392-.01,2.173,2.173,0,0,0-2.2-2.185m-14.254,0A2.18,2.18,0,0,0,42.8,15.355a2.205,2.205,0,0,0,2.171,2.18,2.185,2.185,0,1,0,.023-4.37M20.855,43.89A2.187,2.187,0,1,0,18.631,46a2.172,2.172,0,0,0,2.224-2.107M16.488,54.8a5.9,5.9,0,0,1,4.483-4.393H12.006A5.96,5.96,0,0,1,16.488,54.8" transform="translate(0 0)" fill="#1d36e4"/>
    <path id="Path_2860" data-name="Path 2860" d="M113.97,618.8a1.085,1.085,0,1,1-1.083-1.1,1.091,1.091,0,0,1,1.083,1.1" transform="translate(-101.889 -562.939)" fill="#1d36e4"/>
    <path id="Path_2861" data-name="Path 2861" d="M668.315,618.788a1.1,1.1,0,1,1,1.1,1.106,1.117,1.117,0,0,1-1.1-1.106" transform="translate(-609.066 -562.926)" fill="#1d36e4"/>
    <path id="Path_2862" data-name="Path 2862" d="M471.481,617.707a1.1,1.1,0,1,1-1.1,1.1,1.111,1.111,0,0,1,1.1-1.1" transform="translate(-428.683 -562.944)" fill="#1d36e4"/>
    <path id="Path_2863" data-name="Path 2863" d="M236.361,617.7a1.1,1.1,0,0,1-.007,2.206,1.1,1.1,0,1,1,.007-2.206" transform="translate(-214.394 -562.938)" fill="#1d36e4"/>
  </g>
</svg>
