<svg id="Group_4731" data-name="Group 4731" xmlns="http://www.w3.org/2000/svg" xmlns:xlink="http://www.w3.org/1999/xlink" width="68.418" height="67" viewBox="0 0 68.418 67">
  <defs>
    <clipPath id="clip-path">
      <rect id="Rectangle_3169" data-name="Rectangle 3169" width="68.418" height="67" fill="#1d36e4"/>
    </clipPath>
  </defs>
  <g id="Group_4730" data-name="Group 4730" clip-path="url(#clip-path)">
    <path id="Path_2865" data-name="Path 2865" d="M18.548,103.357v3.615c0,1.511,0,3.021,0,4.532,0,1.087-.36,1.449-1.428,1.454-.727,0-1.453,0-2.259,0v.873q0,9.957,0,19.914c0,1.255-.323,1.575-1.587,1.576q-4.052,0-8.1,0c-1.117,0-1.472-.359-1.473-1.482q0-9.992,0-19.983v-.9c-.833,0-1.6.006-2.373,0-.906-.009-1.311-.395-1.312-1.29C0,104.2-.011,96.742.016,89.28A5.608,5.608,0,0,1,5.571,83.7q3.708-.055,7.417,0a5.638,5.638,0,0,1,5.552,5.585c.025,1.373-.021,2.748.025,4.119a2.188,2.188,0,0,0,.4,1.016,3.693,3.693,0,0,0,3.663,1.632c3.338-.127,6.684-.009,10.026-.052a3.756,3.756,0,0,1,3.727,1.949,3.574,3.574,0,0,1-.461,4.163.785.785,0,0,0-.11.489c.037.753.139,1.5.141,2.256q.021,9.339,0,18.678a1.276,1.276,0,0,0,.572,1.106,11.119,11.119,0,0,1,1.879,2.049,1.025,1.025,0,0,0,.965.538q13.049-.017,26.1-.007a2.7,2.7,0,1,1,.47,5.376c-.3.021-.595.015-.892.015q-13.015,0-26.03-.008a1.381,1.381,0,0,0-1.211.544A5.518,5.518,0,0,1,31.84,135.1a5.821,5.821,0,0,1-1.8-10.452,1,1,0,0,0,.507-.934q-.023-9.682-.011-19.365c0-.952-.045-.992-1.021-.992H18.548m-2.2,7.365c0-2.644.017-5.206-.02-7.767a1.742,1.742,0,0,0-.436-1.064c-2.449-2.628-4.941-5.215-7.4-7.839A3.665,3.665,0,1,1,13.8,88.994c.709.715,1.388,1.459,2.086,2.184a5.746,5.746,0,0,0,.459.378c0-.739,0-1.354,0-1.968a3.479,3.479,0,0,0-3.7-3.691q-3.3-.009-6.591,0a3.5,3.5,0,0,0-3.841,3.826q0,10.125,0,20.249v.749ZM5.939,133.072h6.676v-20.08H5.939Zm20.024-31.921v0c2.379,0,4.759.009,7.138,0a1.464,1.464,0,0,0,1.507-1.232,1.44,1.44,0,0,0-.931-1.582,3.12,3.12,0,0,0-.945-.1c-4.141-.006-8.282-.018-12.423.011a1.671,1.671,0,0,1-1.356-.6c-1.968-2.106-3.958-4.191-5.942-6.282a13.464,13.464,0,0,0-.964-.975,1.17,1.17,0,0,0-1.459-.2,1.5,1.5,0,0,0-.289,2.555c2.409,2.6,4.867,5.157,7.3,7.739a2.006,2.006,0,0,0,1.572.685c2.265-.018,4.53-.007,6.8-.007m13.14,29.26H65.277c.114,0,.255.04.338-.011a6.337,6.337,0,0,0,.589-.453,5.288,5.288,0,0,0-.6-.508c-.1-.062-.268-.012-.406-.012H39.171l-.069.984M32.789,123.6H33.7V103.383h-.914Zm.513,2.253a3.607,3.607,0,0,0-3.625,3.607,3.634,3.634,0,1,0,3.625-3.607" transform="translate(0 -68.322)" fill="#1d36e4"/>
    <path id="Path_2866" data-name="Path 2866" d="M226.134,99.78c1.9,0,3.729,0,5.558,0,1.088,0,1.451.356,1.451,1.43q0,6.318,0,12.636a2.066,2.066,0,0,1-2.263,2.257c-1.442.007-2.885,0-4.327,0H205.176c-1.672,0-2.444-.76-2.445-2.419q0-6.181,0-12.361c0-1.224.323-1.544,1.543-1.545,1.8,0,3.61,0,5.5,0v-.845q0-12.874,0-25.748c0-1.316.294-1.612,1.61-1.612q6.594,0,13.188,0c1.184,0,1.531.338,1.532,1.491q0,6.25,0,12.5,0,6.827,0,13.655c0,.157.014.314.026.561m-7.051,14.073H230.9V102.028H228.46c0,1.51.008,2.971,0,4.432a1.117,1.117,0,0,1-1.254,1.278q-2.23.017-4.46,0a1.081,1.081,0,0,1-1.2-1.184c-.025-.639-.008-1.281-.008-1.921,0-.864,0-1.727,0-2.6h-2.448Zm4.785-14.1V87.926h-2.456c0,1.486.011,2.925,0,4.363-.01.955-.391,1.325-1.345,1.33-1.374.009-2.748.005-4.121,0-1.127,0-1.477-.351-1.48-1.472,0-1.394,0-2.788,0-4.226h-2.437V99.755Zm-7.108,14.109V102.025h-2.426c0,1.505.008,2.965,0,4.424-.006.907-.392,1.285-1.3,1.291-1.327.008-2.654,0-3.982,0s-1.622-.284-1.623-1.593c0-1.366,0-2.732,0-4.124h-2.437v11.838ZM212,85.62h11.844v-11.8h-2.431c0,.287,0,.532,0,.778,0,1.212.014,2.425-.006,3.637-.014.869-.41,1.275-1.263,1.286q-2.2.029-4.392,0c-.891-.011-1.275-.422-1.288-1.331-.011-.778,0-1.555,0-2.333V73.84H212Zm7.162-11.782h-2.444V77.3h2.444Zm0,14.086h-2.452v3.451h2.452Zm-7.054,14.1h-2.428v3.465h2.428Zm11.669,3.462h2.432v-3.46h-2.432Z" transform="translate(-165.531 -58.442)" fill="#1d36e4"/>
    <path id="Path_2867" data-name="Path 2867" d="M11.031,7.283a7.251,7.251,0,1,1,7.245,7.254,7.263,7.263,0,0,1-7.245-7.254M23.326,7.24A5.044,5.044,0,1,0,18.3,12.334,5.05,5.05,0,0,0,23.326,7.24" transform="translate(-9.007 0)" fill="#1d36e4"/>
    <path id="Path_2868" data-name="Path 2868" d="M178.377,329.181a.915.915,0,0,1-.885.934.919.919,0,1,1,.885-.934" transform="translate(-144.156 -268.045)" fill="#1d36e4"/>
  </g>
</svg>
