<svg xmlns="http://www.w3.org/2000/svg" xmlns:xlink="http://www.w3.org/1999/xlink" width="281.006" height="68.268" viewBox="0 0 281.006 68.268">
  <defs>
    <clipPath id="clip-path">
      <rect id="Rectangle_3131" data-name="Rectangle 3131" width="281.006" height="68.268" fill="#fff"/>
    </clipPath>
  </defs>
  <g id="Group_4704" data-name="Group 4704" transform="translate(0)">
    <g id="Group_4703" data-name="Group 4703" transform="translate(0)" clip-path="url(#clip-path)">
      <path id="Path_2728" data-name="Path 2728" d="M68.384,38.215h-4c-4.938,0-9.877-.008-14.816,0-7.911.016-13.2,5.276-13.258,13.232-.038,5.091-.05,10.183.021,15.273.018,1.252-.423,1.549-1.574,1.546q-16.572-.044-33.144,0c-1.053,0-1.55-.227-1.545-1.437C.111,56.085-.17,45.334.173,34.6.591,21.5,6.867,11.584,18.008,4.814A33.735,33.735,0,0,1,36.045.014Q51.242.095,66.44,0c1.465-.008,2,.286,1.988,1.921-.082,11.506-.044,23.012-.044,34.519ZM21.433,34.559c3,0,6-.026,9,.014,1.094.015,1.5-.349,1.49-1.5q-.078-8.85-.006-17.7c.01-1.37-.509-1.944-1.882-1.921-2.644.045-5.291-.033-7.934.023A11.416,11.416,0,0,0,10.968,23.622c-.273,3.028-.124,6.093-.207,9.14-.036,1.305.527,1.829,1.823,1.811,2.95-.042,5.9-.013,8.85-.014" transform="translate(0 0)" fill="#fff"/>
      <path id="Path_2729" data-name="Path 2729" d="M188.316,199a11.013,11.013,0,0,1-11.163-10.959,11.2,11.2,0,0,1,10.656-11.026,11.037,11.037,0,0,1,11.43,10.824A10.927,10.927,0,0,1,188.316,199" transform="translate(-130.869 -130.759)" fill="#fff"/>
      <path id="Path_2730" data-name="Path 2730" d="M301.249,29.062V8.615h-7.5V2.031h21.873V8.615h-7.462V29.062Z" transform="translate(-217.005 -1.501)" fill="#fff"/>
      <path id="Path_2731" data-name="Path 2731" d="M411.741,29.062h-7.827L399.159,20.1h-2.67v8.961h-6.84V2.032h11.266q4.864,0,7.389,2.56a8.675,8.675,0,0,1,2.524,6.4,9.222,9.222,0,0,1-1.262,4.773,8.167,8.167,0,0,1-3.676,3.274Zm-10.9-20.776h-4.352v5.852h4.1a2.754,2.754,0,0,0,2.853-1.426,3.1,3.1,0,0,0,0-3.054,2.474,2.474,0,0,0-2.6-1.372" transform="translate(-287.848 -1.501)" fill="#fff"/>
      <path id="Path_2732" data-name="Path 2732" d="M486.667,18.564V2.032h6.876V18.455A4.533,4.533,0,0,0,494.7,21.8a4.227,4.227,0,0,0,3.127,1.152,4.137,4.137,0,0,0,3.091-1.171,4.542,4.542,0,0,0,1.152-3.328V2.032h6.913V18.564a12.773,12.773,0,0,1-.933,5.066,8.534,8.534,0,0,1-2.542,3.438,11.016,11.016,0,0,1-3.548,1.865,13.834,13.834,0,0,1-4.133.6,13.653,13.653,0,0,1-4.115-.6,11.264,11.264,0,0,1-3.548-1.865,8.457,8.457,0,0,1-2.56-3.438,12.777,12.777,0,0,1-.933-5.066" transform="translate(-359.519 -1.501)" fill="#fff"/>
      <path id="Path_2733" data-name="Path 2733" d="M600.106,28.12a13.726,13.726,0,0,1-9.912-3.841,13.316,13.316,0,0,1-3.987-9.985A13.688,13.688,0,0,1,600.143.212a15.493,15.493,0,0,1,6.639,1.426,13.083,13.083,0,0,1,4.956,3.914l-4.353,4.572a9.251,9.251,0,0,0-6.8-3.365,7.109,7.109,0,0,0-5.23,2.121,7.434,7.434,0,0,0-2.085,5.377,7.216,7.216,0,0,0,2.085,5.267,7.127,7.127,0,0,0,5.194,2.085,8.827,8.827,0,0,0,6.949-3.475l4.536,4.353a14.409,14.409,0,0,1-5.011,4.06,15.09,15.09,0,0,1-6.913,1.573" transform="translate(-433.053 -0.157)" fill="#fff"/>
      <path id="Path_2734" data-name="Path 2734" d="M721.33,29.062h-8.34l-6-9.729-2.926,3.548v6.181h-6.84V2.031h6.84V13.151l8.522-11.119h8.267l-9.364,11.96Z" transform="translate(-515.067 -1.501)" fill="#fff"/>
      <path id="Path_2735" data-name="Path 2735" d="M813.944,29.061h-7.023l-1.573-4.938h-8.6l-1.609,4.938h-7.059l9.876-27.03h6.364ZM798.472,18.2h5.23l-2.56-8.01Z" transform="translate(-582.188 -1.5)" fill="#fff"/>
      <path id="Path_2736" data-name="Path 2736" d="M917.851,29.062H897.843V2.031h6.876v20.52h13.131Z" transform="translate(-663.271 -1.501)" fill="#fff"/>
      <path id="Path_2737" data-name="Path 2737" d="M1002.383,29.061H995.36l-1.573-4.938h-8.6l-1.609,4.938h-7.059L986.4,2.031h6.364ZM986.911,18.2h5.23l-2.56-8.01Z" transform="translate(-721.395 -1.5)" fill="#fff"/>
      <path id="Path_2738" data-name="Path 2738" d="M309.206,162.661v-8.253h-2.922v-1.98h7.92v1.98h-2.922v8.253Z" transform="translate(-226.264 -112.604)" fill="#fff"/>
      <path id="Path_2739" data-name="Path 2739" d="M342.951,169.669H341v-7.547h1.87v1.011a2.225,2.225,0,0,1,2.077-1.219,2.658,2.658,0,0,1,.914.166l-.166,1.869a3.119,3.119,0,0,0-.9-.152,1.683,1.683,0,0,0-1.35.575,2.572,2.572,0,0,0-.491,1.71Z" transform="translate(-251.908 -119.613)" fill="#fff"/>
      <path id="Path_2740" data-name="Path 2740" d="M369.565,163.062v-.9h1.856v7.547h-1.856v-.872a3.143,3.143,0,0,1-2.409,1.052,3.5,3.5,0,0,1-2.686-1.135,4.033,4.033,0,0,1-1.052-2.852,3.89,3.89,0,0,1,1.066-2.811,3.533,3.533,0,0,1,2.673-1.122,3.145,3.145,0,0,1,2.409,1.094m.028,2.867a2.174,2.174,0,0,0-.609-1.537,2.123,2.123,0,0,0-3.032,0,2.32,2.32,0,0,0,.014,3.088,2.107,2.107,0,0,0,3.019,0,2.191,2.191,0,0,0,.609-1.551" transform="translate(-268.47 -119.652)" fill="#fff"/>
      <path id="Path_2741" data-name="Path 2741" d="M405.384,169.669h-1.953v-7.547h1.911v1.052a2.249,2.249,0,0,1,.941-.914,3.095,3.095,0,0,1,3.517.471,3.06,3.06,0,0,1,.858,2.326v4.611h-1.952v-4.085a2.027,2.027,0,0,0-.429-1.378,1.466,1.466,0,0,0-1.163-.492,1.6,1.6,0,0,0-1.253.533,1.986,1.986,0,0,0-.478,1.378Z" transform="translate(-298.03 -119.613)" fill="#fff"/>
      <path id="Path_2742" data-name="Path 2742" d="M441,169.746a3.76,3.76,0,0,1-3.116-1.454l1.039-1.232a2.986,2.986,0,0,0,.962.768,2.476,2.476,0,0,0,1.129.284,1.267,1.267,0,0,0,.741-.208.622.622,0,0,0,.3-.526q0-.4-.54-.651-.166-.069-.9-.346a8.421,8.421,0,0,1-.969-.4,2.113,2.113,0,0,1-.526-3.587,3.094,3.094,0,0,1,2.049-.637,3.511,3.511,0,0,1,2.645,1.08l-.969,1.26a2.47,2.47,0,0,0-1.731-.748.98.98,0,0,0-.616.187.554.554,0,0,0-.242.45q0,.471.665.692,1.481.554,1.814.734A2.076,2.076,0,0,1,444,167.322a2.151,2.151,0,0,1-.831,1.744,3.258,3.258,0,0,1-2.174.679" transform="translate(-323.479 -119.495)" fill="#fff"/>
      <path id="Path_2743" data-name="Path 2743" d="M473.431,161.968a3.478,3.478,0,0,1,2.659,1.15,4.259,4.259,0,0,1-.014,5.622,3.475,3.475,0,0,1-2.659,1.15,3.1,3.1,0,0,1-2.368-1.052v3.974H469.1V162.162h1.939v.927a3.044,3.044,0,0,1,2.4-1.122m-.346,6.134a1.97,1.97,0,0,0,1.509-.623,2.321,2.321,0,0,0,0-3.074,2.123,2.123,0,0,0-3,0,2.322,2.322,0,0,0,0,3.074,1.955,1.955,0,0,0,1.5.623" transform="translate(-346.54 -119.652)" fill="#fff"/>
      <path id="Path_2744" data-name="Path 2744" d="M506.3,165.889a3.817,3.817,0,0,1,1.136-2.811,4.216,4.216,0,0,1,5.816,0,4.065,4.065,0,0,1,0,5.636,4.253,4.253,0,0,1-5.816,0,3.834,3.834,0,0,1-1.136-2.825m2.548,1.537a2.09,2.09,0,0,0,2.977,0,2.174,2.174,0,0,0,.609-1.537,2.127,2.127,0,0,0-.609-1.523,2.09,2.09,0,0,0-2.977,0,2.09,2.09,0,0,0-.6,1.523,2.168,2.168,0,0,0,.6,1.537" transform="translate(-374.026 -119.613)" fill="#fff"/>
      <path id="Path_2745" data-name="Path 2745" d="M547.1,169.669h-1.953v-7.547h1.87v1.011a2.225,2.225,0,0,1,2.077-1.219,2.658,2.658,0,0,1,.914.166l-.166,1.869a3.119,3.119,0,0,0-.9-.152,1.683,1.683,0,0,0-1.35.575,2.572,2.572,0,0,0-.491,1.71Z" transform="translate(-402.724 -119.613)" fill="#fff"/>
      <path id="Path_2746" data-name="Path 2746" d="M573.875,160.72l.582,1.537a3.949,3.949,0,0,1-2.23.623,2.481,2.481,0,0,1-1.966-.755,3.271,3.271,0,0,1-.665-2.223v-3.116h-1.232v-1.634h1.246v-2.672h1.939v2.672h2.492v1.634h-2.492v2.991q0,1.329,1.066,1.329a2.569,2.569,0,0,0,1.26-.388" transform="translate(-419.872 -112.644)" fill="#fff"/>
      <path id="Path_2747" data-name="Path 2747" d="M602.073,163.062v-.9h1.855v7.547h-1.855v-.872a3.142,3.142,0,0,1-2.409,1.052,3.5,3.5,0,0,1-2.686-1.135,4.033,4.033,0,0,1-1.052-2.852,3.889,3.889,0,0,1,1.066-2.811,3.533,3.533,0,0,1,2.673-1.122,3.145,3.145,0,0,1,2.409,1.094m.028,2.867a2.174,2.174,0,0,0-.609-1.537,2.123,2.123,0,0,0-3.032,0,2.319,2.319,0,0,0,.014,3.088,2.107,2.107,0,0,0,3.019,0,2.191,2.191,0,0,0,.609-1.551" transform="translate(-440.232 -119.652)" fill="#fff"/>
      <path id="Path_2748" data-name="Path 2748" d="M639.012,160.72l.582,1.537a3.949,3.949,0,0,1-2.23.623,2.481,2.481,0,0,1-1.966-.755,3.27,3.27,0,0,1-.665-2.223v-3.116H633.5v-1.634h1.246v-2.672h1.939v2.672h2.493v1.634h-2.493v2.991q0,1.329,1.066,1.329a2.569,2.569,0,0,0,1.26-.388" transform="translate(-467.991 -112.644)" fill="#fff"/>
      <path id="Path_2749" data-name="Path 2749" d="M664.69,151.5a1.2,1.2,0,1,1-2.409,0,1.121,1.121,0,0,1,.346-.845,1.238,1.238,0,0,1,1.717,0,1.121,1.121,0,0,1,.346.845m-.235,9.6H662.5v-7.547h1.952Z" transform="translate(-489.252 -111.038)" fill="#fff"/>
      <path id="Path_2750" data-name="Path 2750" d="M678.393,165.889a3.817,3.817,0,0,1,1.136-2.811,4.216,4.216,0,0,1,5.816,0,4.065,4.065,0,0,1,0,5.636,4.253,4.253,0,0,1-5.816,0,3.834,3.834,0,0,1-1.136-2.825m2.548,1.537a2.09,2.09,0,0,0,2.977,0,2.175,2.175,0,0,0,.609-1.537,2.127,2.127,0,0,0-.609-1.523,2.09,2.09,0,0,0-2.977,0,2.09,2.09,0,0,0-.6,1.523,2.168,2.168,0,0,0,.6,1.537" transform="translate(-501.154 -119.613)" fill="#fff"/>
      <path id="Path_2751" data-name="Path 2751" d="M719.193,169.669H717.24v-7.547h1.911v1.052a2.249,2.249,0,0,1,.941-.914,3.095,3.095,0,0,1,3.517.471,3.06,3.06,0,0,1,.858,2.326v4.611h-1.952v-4.085a2.027,2.027,0,0,0-.429-1.378,1.466,1.466,0,0,0-1.163-.492,1.6,1.6,0,0,0-1.253.533,1.986,1.986,0,0,0-.478,1.378Z" transform="translate(-529.852 -119.613)" fill="#fff"/>
      <path id="Path_2752" data-name="Path 2752" d="M775.94,165.762a6.579,6.579,0,0,1-.069.858h-5.663a2.026,2.026,0,0,0,2.2,1.607,4.252,4.252,0,0,0,2.437-.762l.775,1.371a5.494,5.494,0,0,1-3.3,1.039,3.786,3.786,0,0,1-4.1-3.946,3.87,3.87,0,0,1,1.094-2.839,4.13,4.13,0,0,1,5.553-.1,3.662,3.662,0,0,1,1.066,2.769m-3.78-2.174a1.924,1.924,0,0,0-1.253.422,2.077,2.077,0,0,0-.7,1.156h3.836a1.928,1.928,0,0,0-.637-1.156,1.863,1.863,0,0,0-1.247-.422" transform="translate(-567.518 -119.652)" fill="#fff"/>
      <path id="Path_2753" data-name="Path 2753" d="M808,169.875a3.953,3.953,0,0,1-2.88-1.108,4.135,4.135,0,0,1,.014-5.677,4.01,4.01,0,0,1,2.922-1.122,4.111,4.111,0,0,1,2.112.554,3.392,3.392,0,0,1,1.405,1.551l-1.564.859a2.145,2.145,0,0,0-1.925-1.149,2.031,2.031,0,0,0-1.537.623,2.066,2.066,0,0,0-.609,1.523,2.126,2.126,0,0,0,.6,1.551,2.048,2.048,0,0,0,1.509.609,2.2,2.2,0,0,0,1.135-.318,1.968,1.968,0,0,0,.789-.817l1.579.928a3.591,3.591,0,0,1-1.433,1.454,4.193,4.193,0,0,1-2.112.54" transform="translate(-593.947 -119.652)" fill="#fff"/>
      <path id="Path_2754" data-name="Path 2754" d="M838.5,165.889a3.817,3.817,0,0,1,1.135-2.811,4.216,4.216,0,0,1,5.816,0,4.065,4.065,0,0,1,0,5.636,4.253,4.253,0,0,1-5.816,0,3.833,3.833,0,0,1-1.135-2.825m2.548,1.537a2.089,2.089,0,0,0,2.977,0,2.174,2.174,0,0,0,.609-1.537,2.127,2.127,0,0,0-.609-1.523,2.089,2.089,0,0,0-2.977,0,2.09,2.09,0,0,0-.6,1.523,2.168,2.168,0,0,0,.6,1.537" transform="translate(-619.435 -119.613)" fill="#fff"/>
      <path id="Path_2755" data-name="Path 2755" d="M877.976,169.746a3.76,3.76,0,0,1-3.115-1.454l1.038-1.232a2.985,2.985,0,0,0,.962.768,2.475,2.475,0,0,0,1.129.284,1.267,1.267,0,0,0,.741-.208.622.622,0,0,0,.3-.526q0-.4-.54-.651-.166-.069-.9-.346a8.423,8.423,0,0,1-.969-.4,2.113,2.113,0,0,1-.526-3.587,3.094,3.094,0,0,1,2.049-.637,3.511,3.511,0,0,1,2.645,1.08l-.969,1.26a2.47,2.47,0,0,0-1.731-.748.98.98,0,0,0-.616.187.554.554,0,0,0-.242.45q0,.471.665.692,1.481.554,1.814.734a2.077,2.077,0,0,1,1.274,1.911,2.15,2.15,0,0,1-.831,1.744,3.258,3.258,0,0,1-2.174.679" transform="translate(-646.293 -119.495)" fill="#fff"/>
      <path id="Path_2756" data-name="Path 2756" d="M905.994,167.626l1.717-4.915h2.132l-3.032,7.92a5.477,5.477,0,0,1-1.323,2.147,2.941,2.941,0,0,1-3.33.318l.332-1.634a2.224,2.224,0,0,0,.969.249q.9,0,1.468-1.191l.152-.346-3.3-7.463h2.257Z" transform="translate(-666.183 -120.201)" fill="#fff"/>
      <path id="Path_2757" data-name="Path 2757" d="M938.768,169.746a3.761,3.761,0,0,1-3.116-1.454l1.039-1.232a2.981,2.981,0,0,0,.962.768,2.476,2.476,0,0,0,1.129.284,1.267,1.267,0,0,0,.741-.208.622.622,0,0,0,.3-.526q0-.4-.54-.651-.166-.069-.9-.346a8.412,8.412,0,0,1-.97-.4,2.113,2.113,0,0,1-.526-3.587,3.093,3.093,0,0,1,2.049-.637,3.51,3.51,0,0,1,2.645,1.08l-.969,1.26a2.47,2.47,0,0,0-1.731-.748.98.98,0,0,0-.616.187.554.554,0,0,0-.242.45q0,.471.665.692,1.482.554,1.814.734a2.076,2.076,0,0,1,1.274,1.911,2.151,2.151,0,0,1-.831,1.744,3.257,3.257,0,0,1-2.174.679" transform="translate(-691.201 -119.495)" fill="#fff"/>
      <path id="Path_2758" data-name="Path 2758" d="M969.465,160.72l.582,1.537a3.949,3.949,0,0,1-2.23.623,2.482,2.482,0,0,1-1.966-.755,3.271,3.271,0,0,1-.665-2.223v-3.116h-1.232v-1.634H965.2v-2.672h1.938v2.672h2.492v1.634h-2.492v2.991q0,1.329,1.066,1.329a2.569,2.569,0,0,0,1.26-.388" transform="translate(-712.109 -112.644)" fill="#fff"/>
      <path id="Path_2759" data-name="Path 2759" d="M999.281,165.762a6.6,6.6,0,0,1-.069.858h-5.664a2.026,2.026,0,0,0,2.2,1.607,4.252,4.252,0,0,0,2.437-.762l.776,1.371a5.494,5.494,0,0,1-3.3,1.039,3.786,3.786,0,0,1-4.1-3.946,3.871,3.871,0,0,1,1.094-2.839,4.13,4.13,0,0,1,5.553-.1,3.662,3.662,0,0,1,1.067,2.769m-3.78-2.174a1.924,1.924,0,0,0-1.254.422,2.076,2.076,0,0,0-.7,1.156h3.836a1.929,1.929,0,0,0-.636-1.156,1.864,1.864,0,0,0-1.246-.422" transform="translate(-732.509 -119.652)" fill="#fff"/>
      <path id="Path_2760" data-name="Path 2760" d="M1038,161.914a2.98,2.98,0,0,1,2.2.844,3.127,3.127,0,0,1,.872,2.354v4.556h-1.953v-4.2a1.89,1.89,0,0,0-.408-1.3,1.4,1.4,0,0,0-1.1-.457,1.568,1.568,0,0,0-1.2.491,1.865,1.865,0,0,0-.457,1.323v4.14H1034v-4.182a1.924,1.924,0,0,0-.409-1.3,1.4,1.4,0,0,0-1.115-.471,1.545,1.545,0,0,0-1.184.5,1.872,1.872,0,0,0-.464,1.329v4.126h-1.953v-7.547h1.911v1.08a2.357,2.357,0,0,1,.941-.949,2.791,2.791,0,0,1,2.68.007,2.126,2.126,0,0,1,.893.983,2.827,2.827,0,0,1,1.135-.976,3.5,3.5,0,0,1,1.565-.353" transform="translate(-760.071 -119.611)" fill="#fff"/>
      <path id="Path_2761" data-name="Path 2761" d="M311.54,215.374a1.459,1.459,0,0,0-1.039.339,1.278,1.278,0,0,0-.36.976v.263h2.34v1.634h-2.34V224.5h-1.953v-5.913h-1.163v-1.634h1.163v-.3a2.847,2.847,0,0,1,.845-2.229,3.177,3.177,0,0,1,2.216-.775,4.455,4.455,0,0,1,2.146.554l-.638,1.5a3.131,3.131,0,0,0-1.219-.319" transform="translate(-226.812 -157.826)" fill="#fff"/>
      <path id="Path_2762" data-name="Path 2762" d="M332.042,229.489a3.818,3.818,0,0,1,1.135-2.811,4.216,4.216,0,0,1,5.816,0,4.065,4.065,0,0,1,0,5.636,4.253,4.253,0,0,1-5.816,0,3.834,3.834,0,0,1-1.135-2.825m2.548,1.537a2.09,2.09,0,0,0,2.977,0,2.174,2.174,0,0,0,.609-1.537,2.127,2.127,0,0,0-.609-1.523,2.09,2.09,0,0,0-2.977,0,2.091,2.091,0,0,0-.6,1.523,2.168,2.168,0,0,0,.6,1.537" transform="translate(-245.292 -166.596)" fill="#fff"/>
      <path id="Path_2763" data-name="Path 2763" d="M372.843,233.269H370.89v-7.547h1.87v1.011a2.225,2.225,0,0,1,2.077-1.219,2.659,2.659,0,0,1,.914.166l-.166,1.869a3.119,3.119,0,0,0-.9-.152,1.683,1.683,0,0,0-1.35.575,2.572,2.572,0,0,0-.491,1.71Z" transform="translate(-273.991 -166.596)" fill="#fff"/>
      <path id="Path_2764" data-name="Path 2764" d="M416.392,229.362a6.58,6.58,0,0,1-.069.858h-5.663a2.026,2.026,0,0,0,2.2,1.607,4.252,4.252,0,0,0,2.437-.762l.775,1.371a5.493,5.493,0,0,1-3.3,1.039,3.786,3.786,0,0,1-4.1-3.946,3.87,3.87,0,0,1,1.094-2.839,4.13,4.13,0,0,1,5.553-.1,3.662,3.662,0,0,1,1.066,2.769m-3.78-2.174a1.924,1.924,0,0,0-1.253.422,2.075,2.075,0,0,0-.7,1.156h3.836a1.929,1.929,0,0,0-.637-1.156,1.863,1.863,0,0,0-1.246-.422" transform="translate(-301.907 -166.636)" fill="#fff"/>
      <path id="Path_2765" data-name="Path 2765" d="M447.042,230.062l2.423,3.794h-2.243l-1.44-2.479-1.51,2.479h-2.257l2.506-3.849-2.229-3.7h2.229l1.288,2.312,1.385-2.312h2.2Z" transform="translate(-326.533 -167.184)" fill="#fff"/>
      <path id="Path_2766" data-name="Path 2766" d="M478.135,233.474a3.953,3.953,0,0,1-2.88-1.107,4.135,4.135,0,0,1,.013-5.677,4.01,4.01,0,0,1,2.922-1.122,4.112,4.112,0,0,1,2.112.554,3.392,3.392,0,0,1,1.405,1.551l-1.564.859a2.146,2.146,0,0,0-1.925-1.149,2.03,2.03,0,0,0-1.537.623,2.065,2.065,0,0,0-.609,1.523,2.125,2.125,0,0,0,.6,1.551,2.049,2.049,0,0,0,1.509.609,2.2,2.2,0,0,0,1.135-.318,1.97,1.97,0,0,0,.789-.817l1.578.928a3.591,3.591,0,0,1-1.433,1.454,4.193,4.193,0,0,1-2.112.54" transform="translate(-350.261 -166.635)" fill="#fff"/>
      <path id="Path_2767" data-name="Path 2767" d="M516.4,229.362a6.58,6.58,0,0,1-.069.858h-5.663a2.026,2.026,0,0,0,2.2,1.607,4.252,4.252,0,0,0,2.437-.762l.775,1.371a5.494,5.494,0,0,1-3.3,1.039,3.786,3.786,0,0,1-4.1-3.946,3.87,3.87,0,0,1,1.094-2.839,4.13,4.13,0,0,1,5.553-.1,3.662,3.662,0,0,1,1.066,2.769m-3.78-2.174a1.924,1.924,0,0,0-1.253.422,2.076,2.076,0,0,0-.7,1.156H514.5a1.93,1.93,0,0,0-.637-1.156,1.863,1.863,0,0,0-1.247-.422" transform="translate(-375.788 -166.636)" fill="#fff"/>
      <rect id="Rectangle_3128" data-name="Rectangle 3128" width="1.953" height="10.524" transform="translate(142.649 56.149)" fill="#fff"/>
      <rect id="Rectangle_3129" data-name="Rectangle 3129" width="1.953" height="10.524" transform="translate(147.052 56.149)" fill="#fff"/>
      <path id="Path_2768" data-name="Path 2768" d="M585.936,229.362a6.582,6.582,0,0,1-.069.858H580.2a2.026,2.026,0,0,0,2.2,1.607,4.253,4.253,0,0,0,2.437-.762l.775,1.371a5.493,5.493,0,0,1-3.3,1.039,3.786,3.786,0,0,1-4.1-3.946,3.87,3.87,0,0,1,1.094-2.839,4.13,4.13,0,0,1,5.553-.1,3.662,3.662,0,0,1,1.066,2.769m-3.78-2.174a1.924,1.924,0,0,0-1.253.422,2.077,2.077,0,0,0-.7,1.156h3.836a1.929,1.929,0,0,0-.637-1.156,1.864,1.864,0,0,0-1.246-.422" transform="translate(-427.155 -166.636)" fill="#fff"/>
      <path id="Path_2769" data-name="Path 2769" d="M617.487,233.269h-1.953v-7.547h1.911v1.052a2.248,2.248,0,0,1,.941-.914,3.095,3.095,0,0,1,3.517.471,3.059,3.059,0,0,1,.858,2.326v4.611H620.81v-4.085a2.027,2.027,0,0,0-.429-1.378,1.466,1.466,0,0,0-1.163-.492,1.6,1.6,0,0,0-1.253.533,1.986,1.986,0,0,0-.478,1.378Z" transform="translate(-454.718 -166.596)" fill="#fff"/>
      <path id="Path_2770" data-name="Path 2770" d="M654.728,233.474a3.954,3.954,0,0,1-2.88-1.107,4.135,4.135,0,0,1,.014-5.677,4.01,4.01,0,0,1,2.922-1.122,4.112,4.112,0,0,1,2.112.554,3.392,3.392,0,0,1,1.405,1.551l-1.564.859a2.146,2.146,0,0,0-1.925-1.149,2.031,2.031,0,0,0-1.537.623,2.065,2.065,0,0,0-.609,1.523,2.126,2.126,0,0,0,.6,1.551,2.049,2.049,0,0,0,1.509.609,2.2,2.2,0,0,0,1.135-.318,1.97,1.97,0,0,0,.789-.817l1.579.928a3.593,3.593,0,0,1-1.433,1.454,4.193,4.193,0,0,1-2.112.54" transform="translate(-480.717 -166.635)" fill="#fff"/>
      <path id="Path_2771" data-name="Path 2771" d="M692.995,229.362a6.579,6.579,0,0,1-.069.858h-5.663a2.026,2.026,0,0,0,2.2,1.607,4.252,4.252,0,0,0,2.437-.762l.775,1.371a5.493,5.493,0,0,1-3.3,1.039,3.786,3.786,0,0,1-4.1-3.946,3.87,3.87,0,0,1,1.094-2.839,4.13,4.13,0,0,1,5.553-.1,3.661,3.661,0,0,1,1.066,2.769m-3.78-2.174a1.924,1.924,0,0,0-1.253.422,2.076,2.076,0,0,0-.7,1.156H691.1a1.929,1.929,0,0,0-.637-1.156,1.863,1.863,0,0,0-1.246-.422" transform="translate(-506.244 -166.636)" fill="#fff"/>
      <rect id="Rectangle_3130" data-name="Rectangle 3130" width="204.261" height="2.289" transform="translate(76.745 33.068)" fill="#fff"/>
    </g>
  </g>
</svg>
