<svg id="Group_4721" data-name="Group 4721" xmlns="http://www.w3.org/2000/svg" xmlns:xlink="http://www.w3.org/1999/xlink" width="74" height="77.515" viewBox="0 0 74 77.515">
  <defs>
    <clipPath id="clip-path">
      <rect id="Rectangle_3160" data-name="Rectangle 3160" width="74" height="77.515" fill="#1d36e4" stroke="#1a32d9" stroke-width="1"/>
    </clipPath>
  </defs>
  <g id="Group_4720" data-name="Group 4720" clip-path="url(#clip-path)">
    <path id="Path_2819" data-name="Path 2819" d="M115.409,305.4H97.677a4.372,4.372,0,0,1-1.62,3.771,4.048,4.048,0,0,1-2.7.871c-2.324-.078-3.628-1.561-4.094-4.685-1.537,0-3.088,0-4.639,0-2.429-.009-3.556-1.13-3.558-3.532,0-.993-.043-1.99.028-2.978a1.023,1.023,0,0,1,.579-.764c.485-.1.675.3.673.772,0,1.1-.01,2.2,0,3.3a1.69,1.69,0,0,0,1.839,1.87q2.536.043,5.074-.01a1.159,1.159,0,0,0,.774-.406,4.159,4.159,0,0,1,6.96.031.954.954,0,0,0,.627.38c4.212.022,8.425.016,12.777.016v-.973q0-11.558,0-23.116c0-2,.764-2.75,2.787-2.753q1.933,0,3.866,0a3.576,3.576,0,0,1,3.08,1.6q3.992,5.656,7.992,11.307a4.1,4.1,0,0,1,.789,2.479c-.014,3.463,0,6.927-.008,10.39a2.19,2.19,0,0,1-2.411,2.386c-.88.009-1.76,0-2.709,0a4.438,4.438,0,0,1-1.64,3.814,4.028,4.028,0,0,1-2.7.868c-2.349-.092-3.784-1.73-4.036-4.643m-3.733-1.364c1.213,0,2.309-.018,3.4.008a1.256,1.256,0,0,0,1.2-.574,4,4,0,0,1,6.23-.446,2.748,2.748,0,0,0,2.623,1.021c.4-.03.8,0,1.208-.006,1.048-.012,1.287-.242,1.289-1.279q.009-3.825,0-7.65c0-.229-.042-.458-.073-.766-1.105,0-2.149.036-3.189-.009a2.779,2.779,0,0,1-2.737-2.805,2.841,2.841,0,0,1,2.814-2.832c.3-.013.6-.028.939-.043a1.041,1.041,0,0,0-1.183-.843c-3.06.027-6.12.019-9.18.011-1.2,0-1.709-.518-1.715-1.722-.007-1.4,0-2.792,0-4.188,0-1.43.5-1.918,1.944-1.921,1.3,0,2.606,0,4.029,0a2.261,2.261,0,0,0-2.135-1.488c-1.315-.016-2.631-.009-3.946-.008-1.279,0-1.519.235-1.519,1.484q0,11.516,0,23.032v1.025m12.33-17.489c-1.252-1.771-2.35-3.35-3.486-4.9a1.048,1.048,0,0,0-.733-.351c-1.5-.032-3,.007-4.5-.025-.6-.012-.717.249-.706.773.026,1.231.038,2.464,0,3.694-.021.628.172.835.816.824,2.275-.036,4.551-.014,6.827-.014h1.783M93.521,308.728a2.865,2.865,0,0,0,2.845-2.879,2.9,2.9,0,0,0-2.862-2.8,2.829,2.829,0,0,0-2.815,2.893,2.785,2.785,0,0,0,2.832,2.781m26.069,0a2.867,2.867,0,0,0,2.876-2.854,2.9,2.9,0,0,0-2.841-2.821,2.837,2.837,0,0,0-.035,5.674M127.649,293a3.693,3.693,0,0,0-.163-1.3,3.759,3.759,0,0,0-1.3-1.6,4.112,4.112,0,0,0-2.053-.015,1.4,1.4,0,0,0-1.207,1.395,1.43,1.43,0,0,0,1.191,1.5c1.136.079,2.281.021,3.529.021" transform="translate(-67.992 -232.528)" fill="#1d36e4" stroke="#1a32d9" stroke-width="1"/>
    <path id="Path_2820" data-name="Path 2820" d="M112.1,28.542c-.638-1.653-1.178-3.105-1.775-4.533a.9.9,0,0,0-.681-.357c-.8-.046-1.61-.024-2.415-.022a.771.771,0,0,1-.88-.888q.01-2.939,0-5.879c0-.644.31-.925.942-.916.778.011,1.557-.014,2.335.005a.654.654,0,0,0,.743-.533c.5-1.411,1.064-2.8,1.708-4.459-.52-.472-1.205-1.107-1.906-1.725a.821.821,0,0,1-.036-1.411c1.365-1.328,2.7-2.684,4.037-4.045a.858.858,0,0,1,1.435,0,21.208,21.208,0,0,0,1.6,1.587.944.944,0,0,0,.8.124c1.274-.487,2.536-1.008,3.776-1.574a1.043,1.043,0,0,0,.513-.72,21.381,21.381,0,0,0,.024-2.253c-.008-.624.246-.943.909-.938q2.939.021,5.879,0c.661-.006.911.285.895.929-.022.885-.3,1.972.1,2.6.388.6,1.521.7,2.314,1.054s1.549.727,2.5,1.178c.568-.619,1.186-1.286,1.8-1.96.507-.561.975-.526,1.5.009q1.967,2.017,3.98,3.989c.52.507.535.927,0,1.419-.669.618-1.31,1.266-1.936,1.876.53,1.253,1.063,2.415,1.517,3.608.471,1.237.437,1.245,1.81,1.252,2.653.015,2.365-.309,2.377,2.352.006,1.423-.024,2.846.01,4.268.018.744-.235,1.091-1.018,1.069-.909-.026-2.023-.284-2.673.137-.595.385-.669,1.551-1.012,2.355a14.177,14.177,0,0,1-.832,1.649.641.641,0,0,0,.121.964c.6.533,1.134,1.142,1.713,1.7a.754.754,0,0,1,.009,1.241q-2.111,2.1-4.208,4.218a.745.745,0,0,1-1.235-.012c-.558-.58-1.153-1.125-1.7-1.714a.713.713,0,0,0-.974-.16c-1.192.542-2.41,1.033-3.634,1.5-.382.146-.561.31-.545.737.03.8-.008,1.611.014,2.416.016.6-.212.906-.838.9q-2.98-.012-5.96,0c-.6,0-.889-.274-.883-.88.009-.805-.016-1.611.008-2.416a.67.67,0,0,0-.509-.764c-1.25-.474-2.469-1.03-3.72-1.5a.966.966,0,0,0-.818.134,21.168,21.168,0,0,0-1.716,1.7c-.475.514-.882.478-1.356,0-1.374-1.4-2.765-2.777-4.156-4.157a.758.758,0,0,1,.02-1.245c.721-.677,1.444-1.352,2.028-1.9m32.51-6.2V17.258c-.942,0-1.825-.009-2.707,0a.914.914,0,0,1-.99-.719c-.6-1.626-1.244-3.24-1.967-4.815a.981.981,0,0,1,.214-1.337c.633-.575,1.253-1.165,1.84-1.712l-3.725-3.747c-.586.637-1.206,1.3-1.813,1.976-.351.391-.7.34-1.151.142-1.61-.709-3.23-1.4-4.868-2.039-.5-.2-.748-.429-.729-.98.029-.877.008-1.756.008-2.668h-5.086c0,.9-.028,1.727.009,2.555.029.656-.27.9-.869,1.126C121.2,5.629,119.65,6.291,118.126,7c-.549.254-.933.287-1.347-.177-.583-.653-1.2-1.281-1.684-1.8l-3.744,3.66c.558.523,1.125,1.094,1.734,1.615.58.5.527.945.212,1.613-.693,1.47-1.283,2.992-1.831,4.524-.205.574-.456.854-1.071.836-.878-.026-1.757-.007-2.645-.007v5.087c.956,0,1.839.008,2.721,0a.922.922,0,0,1,1,.712c.6,1.6,1.243,3.183,1.963,4.729.261.562.28.928-.177,1.336-.674.6-1.33,1.224-1.9,1.752l3.714,3.744c.605-.646,1.251-1.326,1.886-2.015.349-.379.685-.349,1.146-.142,1.558.7,3.129,1.372,4.727,1.972.572.215.838.464.814,1.081-.035.9-.009,1.8-.009,2.774,1.633,0,3.131.017,4.627-.026.157,0,.421-.356.435-.56a19.743,19.743,0,0,0,.015-2.253c-.026-.6.266-.81.793-1.012,1.594-.609,3.169-1.275,4.725-1.975a.887.887,0,0,1,1.2.189c.619.7,1.26,1.382,1.8,1.975l3.81-3.691c-.643-.6-1.28-1.21-1.94-1.8-.489-.433-.45-.819-.171-1.4.711-1.493,1.347-3.026,1.913-4.579.213-.586.468-.836,1.075-.817.878.027,1.758.007,2.684.007" transform="translate(-89.21 0)" fill="#1d36e4" stroke="#1a32d9" stroke-width="1"/>
    <path id="Path_2821" data-name="Path 2821" d="M125.246,293.006c0,2.9-.016,5.8.011,8.7.007.752-.247,1.062-1.023,1.059-5.852-.018-11.7,0-17.557-.023a1.849,1.849,0,0,1-1.027-.335c-1.294-.958-2.578-1.933-3.8-2.974a1.793,1.793,0,0,1-.571-1.2c-.037-5.8-.026-11.6-.023-17.4,0-.943.139-1.094,1.057-1.095q8.779-.008,17.557.011a1.7,1.7,0,0,1,.947.323c1.31.98,2.613,1.974,3.864,3.027a1.7,1.7,0,0,1,.546,1.131c.045,2.926.025,5.852.024,8.778m-1.368-8.45H107.041v16.869h16.837Zm-18.327,16.129a3.088,3.088,0,0,0,.08-.4q.007-7.842,0-15.685c0-.178-.015-.431-.126-.523-.918-.755-1.861-1.48-2.91-2.3-.039.31-.069.432-.069.555q0,7.762.006,15.524a.918.918,0,0,0,.223.639c.881.729,1.794,1.417,2.793,2.193m16.819-17.476.078-.216c-.482-.375-.995-.717-1.439-1.132a3.1,3.1,0,0,0-2.319-.83c-4.583.046-9.167.021-13.75.021H104.1a13.352,13.352,0,0,0,1.608,1.511,2.6,2.6,0,0,0,1.892.663c4.61-.033,9.22-.016,13.83-.015h.936" transform="translate(-84.934 -234.66)" fill="#1d36e4" stroke="#1a32d9" stroke-width="1"/>
    <path id="Path_2822" data-name="Path 2822" d="M385.673,156.652c.46.434,1.088.832.79,1.647-.3.833-1.068.7-1.709.747-1.5.111-3,.162-4.5.266-.636.044-.917-.209-1.021-.836-.272-1.64-.587-3.273-.9-4.906a1.16,1.16,0,0,1,.461-1.345,1.184,1.184,0,0,1,1.48.19c.208.168.419.331.789.622.653-1.119,1.37-2.147,1.89-3.267q5.845-12.6-1.978-24.1c-.674-.994-.618-1.424.351-2.136.865-.635,1.721-1.282,2.595-1.9.775-.553,1.3-.488,1.849.281a28.756,28.756,0,0,1,5.214,12.676,29.117,29.117,0,0,1-5.136,21.676,2.925,2.925,0,0,0-.162.274.411.411,0,0,0-.011.117m-3.75-31.934c.257.388.446.68.641.967a24.782,24.782,0,0,1-.459,28.055c-.772,1.059-.85,1.07-1.885.308a3.723,3.723,0,0,0-.5-.245c.236,1.325.436,2.538.683,3.741.034.168.3.419.448.414,1.252-.043,2.5-.136,3.912-.225-.7-.592-.866-1.074-.338-1.784a27.954,27.954,0,0,0,1.539-31.4c-.381-.634-.816-1.235-1.254-1.893l-2.786,2.058" transform="translate(-317.338 -101.726)" fill="#1d36e4" stroke="#1a32d9" stroke-width="1"/>
    <path id="Path_2823" data-name="Path 2823" d="M5.7,126.068c-.187-.173-.414-.289-.485-.467-.156-.4-.4-.873-.294-1.22a1.3,1.3,0,0,1,.949-.691c1.71-.149,3.429-.207,5.145-.274a.978.978,0,0,1,1.085.868c.319,1.687.671,3.369.908,5.067a1.405,1.405,0,0,1-.556,1.112,1.582,1.582,0,0,1-1.164-.072,5.3,5.3,0,0,1-1.084-.774A48.643,48.643,0,0,0,7.8,134.195c-3.214,8.034-2.339,15.649,2.553,22.791.68.992.637,1.425-.319,2.146-.815.614-1.638,1.216-2.458,1.822-.9.668-1.452.6-2.095-.307a29.438,29.438,0,0,1-.216-33.9c.148-.218.286-.443.438-.68m3.715,31.9c-.222-.339-.4-.608-.574-.874a24.406,24.406,0,0,1-3.809-18.2,24.04,24.04,0,0,1,4.036-9.728c.713-1.034,1.169-1.121,2.187-.436a2.074,2.074,0,0,0,.36.133c-.232-1.3-.436-2.517-.675-3.722-.032-.163-.248-.419-.372-.416-1.3.036-2.593.116-4.032.192a1.441,1.441,0,0,1,.132,2.132,33.188,33.188,0,0,0-2.525,4.2,27.632,27.632,0,0,0-.029,24.543c.684,1.465,1.6,2.822,2.437,4.279l2.863-2.1" transform="translate(0 -103.529)" fill="#1d36e4" stroke="#1a32d9" stroke-width="1"/>
    <path id="Path_2824" data-name="Path 2824" d="M166.446,47.429a12.124,12.124,0,1,1-12.178,12.088,12.114,12.114,0,0,1,12.178-12.088m3.263,1.924c2.03,2.879,2.558,6.155,2.793,9.527h4.609c.321-3.752-3.74-9.008-7.4-9.527m-6.987.1c-3.757.836-7.269,5.693-7,9.437h4.422a48.559,48.559,0,0,1,.853-4.925,45.451,45.451,0,0,1,1.73-4.511m7.021,20.334c4.4-1.29,7.531-5.925,7.333-9.533-1.385,0-2.776-.016-4.165.022a.671.671,0,0,0-.449.47,17.7,17.7,0,0,1-2.719,9.041M155.689,60.3c-.207,3.767,4.048,9.271,7.187,9.294-1.889-2.817-2.42-6.014-2.62-9.294Zm11.377-.008v9.8c2.354-.345,4.3-6.4,3.973-9.8Zm4.154-1.425c-.135-1.1-.222-2.127-.4-3.144a11.352,11.352,0,0,0-2.442-5.845,10.667,10.667,0,0,0-1.323-1.06V58.868ZM161.594,60.3a13.73,13.73,0,0,0,.088,1.614,24.443,24.443,0,0,0,.752,3.606,17.84,17.84,0,0,0,1.619,3.378,7.208,7.208,0,0,0,1.433,1.364l.181-.173V60.3Zm4.08-11.311c-2.348.993-4.642,6.862-3.945,9.9h3.945Z" transform="translate(-129.411 -39.787)" fill="#1d36e4" stroke="#1a32d9" stroke-width="1"/>
    <path id="Path_2825" data-name="Path 2825" d="M165.1,343.67c-1.338,0-2.676,0-4.015,0-.48,0-.974-.012-.963-.663.01-.6.472-.618.926-.618q4.135,0,8.27,0c.477,0,.9.088.885.663s-.46.627-.928.624c-1.392-.011-2.783,0-4.175,0" transform="translate(-134.327 -287.221)" fill="#1d36e4" stroke="#1a32d9" stroke-width="1"/>
  </g>
</svg>
